<svg version="1.1" xmlns="http://www.w3.org/2000/svg" xmlns:xlink="http://www.w3.org/1999/xlink" width="77.73515" height="121.98946" viewBox="0,0,77.73515,121.98946"><defs><radialGradient cx="289.74722" cy="178.95542" r="10.31854" gradientUnits="userSpaceOnUse" id="color-1"><stop offset="0" stop-color="#595959"/><stop offset="1" stop-color="#323232"/></radialGradient></defs><g transform="translate(-285.74513,-121.12557)"><g data-paper-data="{&quot;isPaintingLayer&quot;:true}" fill-rule="nonzero" stroke-linejoin="miter" stroke-miterlimit="10" stroke-dasharray="" stroke-dashoffset="0" style="mix-blend-mode: normal"><path d="M318.62621,141.33783l0.81132,-3.3779l15.36728,3.691l-0.81132,3.3779z" fill="#1d1d1d" stroke="none" stroke-width="0" stroke-linecap="butt"/><path d="M311.5989,123.57557c0,1.3531 -2.23858,2.45 -5,2.45c-2.76142,0 -5,-1.0969 -5,-2.45c0,-1.3531 2.23858,-2.45 5,-2.45c2.76142,0 5,1.0969 5,2.45z" fill="#262626" stroke="none" stroke-width="0" stroke-linecap="butt"/><g data-paper-data="{&quot;index&quot;:null}"><path d="M292.02737,217.5386l3.27739,-62.9727c0,0 8.13956,-1.17049 12.40726,-1.17049c4.07272,0 12.64136,1.17049 12.64136,1.17049l3.27739,62.9727c0,0 -8.2194,2.05607 -15.91875,2.10689c-7.74457,0.05112 -15.68465,-2.10689 -15.68465,-2.10689z" data-paper-data="{&quot;index&quot;:null}" fill="#eaeaea" stroke="#000000" stroke-width="3" stroke-linecap="butt"/><path d="M295.87015,213.89211l2.69309,-51.74579c0,0 6.68842,-0.96182 10.19527,-0.96182c3.34663,0 10.38763,0.96182 10.38763,0.96182l2.69308,51.74579c0,0 -6.75402,1.68951 -13.08071,1.73127c-6.36385,0.042 -12.88835,-1.73127 -12.88835,-1.73127z" data-paper-data="{&quot;index&quot;:null}" fill="#ffffff" stroke="none" stroke-width="0" stroke-linecap="butt"/><path d="M307.82904,165.2174c-9.69671,0 -17.55744,-7.86074 -17.55744,-17.55745c0,-9.69671 7.86073,-17.55745 17.55744,-17.55745c9.69671,0 17.55745,7.86074 17.55745,17.55745c0,9.69671 -7.86074,17.55745 -17.55745,17.55745z" data-paper-data="{&quot;index&quot;:null}" fill="#eaeaea" stroke="#000000" stroke-width="3" stroke-linecap="butt"/><path d="M294.36835,147.01656c0,-8.14523 6.60301,-14.74825 14.74825,-14.74825c8.14523,0 14.74826,6.60302 14.74826,14.74826c0,8.14523 -6.60302,14.74825 -14.74825,14.74825c-8.14523,0 -14.74825,-6.60302 -14.74825,-14.74825z" data-paper-data="{&quot;index&quot;:null}" fill="#ffffff" stroke="none" stroke-width="0" stroke-linecap="butt"/><path d="M311.30155,144.15293c0,0 0.38734,2.96709 0.44537,4.42679c0.05653,1.42177 -0.10154,1.82062 -0.10154,1.82062" data-paper-data="{&quot;index&quot;:null}" fill="none" stroke="#000000" stroke-width="2.5" stroke-linecap="round"/><path d="M320.31551,143.90849c0,0 0.38735,2.9671 0.44538,4.4268c0.05652,1.42177 0.09845,1.6206 0.09845,1.6206" data-paper-data="{&quot;index&quot;:null}" fill="none" stroke="#000000" stroke-width="2.5" stroke-linecap="round"/></g><path d="M312.71165,141.70594v-3.47397h15.80433v3.47397z" fill="#1d1d1d" stroke="none" stroke-width="0" stroke-linecap="butt"/><path d="M325.14836,150.55707c0,0 -3.39491,1.94382 -5.36871,2.07595c-2.10318,0.14078 -6.8481,-0.11403 -10.66088,-0.31962c-3.24201,-0.17482 -5.49544,-2.39105 -5.49544,-2.39105l0.16993,-7.36279h21.07189l0.28322,7.99751z" data-paper-data="{&quot;index&quot;:null}" fill-opacity="0.35686" fill="#004f75" stroke="#000000" stroke-width="0" stroke-linecap="butt"/><path d="M302.40059,150.12846c0,0 -0.29112,-2.833 -0.23129,-4.1272c0.05824,-1.2591 0.64468,-3.4087 0.64468,-3.4087c0,0 2.49943,-0.1968 4.41877,-0.202c1.42901,-0.0039 4.18002,0.3295 7.14411,0.3519c2.62858,0.0199 5.60197,-0.4734 7.79242,-0.5294c2.35057,-0.06 3.64933,0.3161 3.64933,0.3161c0,0 0.53145,2.2013 0.59052,4.1632c0.02782,0.923 -0.57229,3.2429 -0.57229,3.2429c0,0 -0.69735,0.8411 -1.1606,1.1746c-0.2634,0.1897 -1.10392,0.5807 -2.31336,0.9066c-1.32052,0.3559 -3.05823,0.6465 -4.39858,0.8175c-0.75558,0.0964 -1.36453,0.572 -2.13369,0.6558c-0.95124,0.1036 -2.05378,-0.1905 -2.86351,-0.1381c-0.508,0.0329 -0.97051,0.0522 -1.36527,0.0536c-2.52828,0.0089 -6.79111,-1.1822 -6.79111,-1.1822c0,0 -0.75483,-0.3051 -1.1417,-0.6159c-0.44715,-0.3592 -1.26842,-1.4787 -1.26842,-1.4787zM324.94715,149.13924c0,0 0.28304,-2.2132 0.28573,-2.8905c0.00437,-1.1202 -0.51926,-2.7849 -0.51926,-2.7849c0,0 -1.07229,-0.1664 -3.07033,-0.0829c-2.09098,0.0873 -5.16775,0.424 -7.79502,0.3975c-3.07544,-0.0311 -5.97757,-0.4972 -7.20803,-0.4874c-1.22116,0.0097 -2.63062,0.3373 -2.63062,0.3373c0,0 -0.52354,1.6212 -0.51908,2.6838c0.0053,1.2605 0.01748,3.0546 0.01748,3.0546c0,0 0.57379,0.712 0.97228,0.9997c0.38984,0.2816 1.70524,1.0975 1.70524,1.0975c0,0 1.71101,0.5616 2.57713,0.7173c0.88026,0.1583 3.96194,0.1615 3.96194,0.1615c0,0 1.54438,-2.8056 2.36379,-2.8275c0.81941,-0.0219 2.65556,2.4124 2.65556,2.4124l4.78358,-0.7525c0,0 1.15444,-0.6396 1.64458,-0.9684c0.33168,-0.2226 0.77502,-1.0675 0.77502,-1.0675z" data-paper-data="{&quot;index&quot;:null}" fill="#101010" stroke="#000000" stroke-width="0.5" stroke-linecap="butt"/><path d="M288.68927,152.96309z" fill="#434a65" stroke="none" stroke-width="0" stroke-linecap="butt"/><path d="M290.02703,152.87299z" fill="#434a65" stroke="none" stroke-width="0" stroke-linecap="butt"/><path d="M310.73909,137.0589c0,0 4.46758,-1.29441 6.66955,-1.41738c2.12598,-0.11873 6.3223,0.69187 6.3223,0.69187c0,0 5.52531,1.48315 7.79365,2.65226c1.98951,1.0254 3.54148,4.23423 3.54148,4.23423" data-paper-data="{&quot;index&quot;:null}" fill="#1d1d1d" stroke="#000000" stroke-width="1.5" stroke-linecap="round"/><path d="M335.06949,143.39333c0,0 -1.96898,1.56051 -4.18926,1.84325c-2.53144,0.32236 -8.23072,-0.17466 -8.23072,-0.17466c0,0 -4.22038,-0.67423 -6.1774,-1.51325c-2.02698,-0.86901 -5.64306,-6.12809 -5.64306,-6.12809" fill="#1d1d1d" stroke="#000000" stroke-width="1.5" stroke-linecap="round"/><path d="M327.86231,141.66609l0.28443,-1.61227l3.70388,0.65341l-0.28443,1.61227z" fill="#1d1d1d" stroke="none" stroke-width="0" stroke-linecap="butt"/><path d="M331.23813,142.39642l0.19987,-1.13295l0.6972,0.123l-0.19987,1.13295z" fill="#1d1d1d" stroke="none" stroke-width="0" stroke-linecap="butt"/><path d="M331.89173,142.51173l0.17681,-1.00222l0.08715,0.01538l-0.17681,1.00222z" fill="#1d1d1d" stroke="none" stroke-width="0" stroke-linecap="butt"/><path d="M331.69177,142.11701l0.123,-0.6972l0.74077,0.13068l-0.123,0.6972z" fill="#1d1d1d" stroke="none" stroke-width="0" stroke-linecap="butt"/><path d="M331.89685,141.97346l0.123,-0.6972l0.21788,0.03844l-0.123,0.6972z" fill="#1d1d1d" stroke="none" stroke-width="0" stroke-linecap="butt"/><path d="M332.21468,142.20925l0.10762,-0.61005l0.5229,0.09225l-0.10762,0.61005z" fill="#1d1d1d" stroke="none" stroke-width="0" stroke-linecap="butt"/><path d="M290.08343,137.83748c0,0 0.61755,-2.71703 2.40813,-5.36576c1.33684,-1.97755 3.67566,-3.86955 5.01988,-4.82064c1.33484,-0.94446 3.65856,-2.34373 5.81938,-2.86087c2.97282,-0.71147 5.70114,-0.35972 5.70114,-0.35972c0,0 2.83657,0.15185 5.5269,0.95531c1.94318,0.58033 3.70747,1.6545 4.75959,2.52481c1.0167,0.841 2.48641,2.37393 3.33951,3.98966c1.3747,2.60362 1.89035,5.36517 1.89035,5.36517" fill="#1d1d1d" stroke="#000000" stroke-width="1.5" stroke-linecap="round"/><path d="M294.15964,141.32146l-1.42469,2.69537" fill="none" stroke="#000000" stroke-width="1.5" stroke-linecap="round"/><path d="M293.67714,140.08929v-2.65686h22.8721v2.65686z" fill="#1d1d1d" stroke="none" stroke-width="0" stroke-linecap="butt"/><path d="M292.90703,139.58873c0,0 -0.93392,-0.83922 -1.32143,-1.2197c-0.28929,-0.28403 -0.60383,-1.05211 -0.60383,-1.05211h4.08155v3.04191c0,0 0.03531,0.49757 -0.08826,0.48992c-0.30469,-0.01884 -0.98852,-0.56645 -1.26797,-0.66625c-0.30167,-0.10774 -0.80007,-0.59378 -0.80007,-0.59378z" fill="#1d1d1d" stroke="none" stroke-width="0" stroke-linecap="butt"/><path d="M290.1551,138.08702c0,0 0.81707,0.34058 1.57196,0.96261c0.84032,0.69242 2.12455,2.65688 2.12455,2.65688" fill="none" stroke="#000000" stroke-width="1.5" stroke-linecap="round"/><path d="M324.50186,137.08945c0,0 -7.95254,4.5021 -10.69826,5.14616c-2.65096,0.62183 -8.11564,0.5333 -8.11564,0.5333c0,0 -7.28777,-0.64027 -10.4041,-1.60862c-2.73329,-0.84932 -3.21435,-1.46555 -3.21435,-1.46555" fill="#1d1d1d" stroke="#000000" stroke-width="1.5" stroke-linecap="round"/><path d="M288.82548,141.78352l3.85053,2.1948" fill="none" stroke="#000000" stroke-width="1.5" stroke-linecap="round"/><path d="M288.70996,141.6295l1.84825,0.19253" fill="none" stroke="#000000" stroke-width="1.5" stroke-linecap="round"/><path d="M298.61317,140.97021c0,0 -0.47528,-5.49919 -0.32072,-8.42236c0.14481,-2.7388 4.32072,-7.17139 4.32072,-7.17139" fill="none" stroke="#000000" stroke-width="1.5" stroke-linecap="round"/><path d="M310.36155,124.97646c0,0 4.17591,5.68837 4.32072,8.55611c0.15456,3.06079 -0.32072,8.81889 -0.32072,8.81889" data-paper-data="{&quot;index&quot;:null}" fill="none" stroke="#000000" stroke-width="1.5" stroke-linecap="round"/><text transform="translate(311.93115,139.05169) rotate(-22.89075) scale(0.14969,0.14969)" font-size="40" xml:space="preserve" fill="#00becc" fill-rule="nonzero" stroke="#ffffff" stroke-width="0.5" stroke-linecap="butt" stroke-linejoin="miter" stroke-miterlimit="10" stroke-dasharray="" stroke-dashoffset="0" font-family="Sans Serif" font-weight="normal" text-anchor="start" style="mix-blend-mode: normal"><tspan x="0" dy="0">FBL</tspan></text><path d="M303.92401,217.57842c6.61227,-1.21168 14.70807,-1.97923 14.70807,-1.97923l29.81552,16.5674c0,0 4.89216,0.05346 8.9507,1.04021c6.62846,1.61159 11.73436,7.93828 -6.49102,9.61202c-9.1888,0.84386 -15.56752,-0.19273 -18.87683,-2.12805c-3.3213,-1.94232 -3.50918,-4.37206 -3.50918,-4.37206l-36.9224,-15.69115c0,0 5.67403,-1.83034 12.32514,-3.04914z" data-paper-data="{&quot;index&quot;:null}" fill-opacity="0.25098" fill="#000000" stroke="none" stroke-width="0" stroke-linecap="butt"/><path d="" fill="#000000" stroke="none" stroke-width="0.5" stroke-linecap="butt"/><text transform="translate(301.35585,169.38784) rotate(-0.58973) scale(0.12679,0.12679)" font-size="40" xml:space="preserve" fill="#323232" fill-rule="nonzero" stroke="none" stroke-width="1" stroke-linecap="butt" stroke-linejoin="miter" stroke-miterlimit="10" stroke-dasharray="" stroke-dashoffset="0" font-family="&quot;Microsoft YaHei&quot;, &quot;微软雅黑&quot;, STXihei, &quot;华文细黑&quot;" font-weight="normal" text-anchor="start" style="mix-blend-mode: normal"><tspan x="0" dy="0">霍霍</tspan></text><path d="M286.18857,202.73813c-0.03499,-3.39485 -0.13231,-12.83522 -0.19341,-18.76341c-0.01311,-1.27192 3.91456,-1.55564 3.89751,-3.21001c-0.10089,-9.78826 -1.56641,-22.80664 -1.56641,-22.80664l5.0199,-1.48119c0,0 3.83617,2.19917 6.55285,4.78084c1.984,1.8854 5.13462,2.61422 6.61949,2.59891c1.51462,-0.01561 6.08261,0.78421 8.02155,-1.17522c2.59177,-2.61914 5.49524,-5.76074 5.49524,-5.76074l5.18413,2.90134c0,0 -2.33703,10.91892 -2.23723,20.60163c0.01499,1.45383 4.84244,2.3569 4.85422,3.50017c0.06318,6.12931 0.16032,15.55346 0.1921,18.63662c0.00667,0.64654 -0.32584,1.11774 -0.91961,1.29251c-3.18782,0.93829 -13.79701,3.93092 -19.62984,3.99104c-5.92583,0.06108 -16.99461,-2.71194 -20.31308,-3.58113c-0.61549,-0.16121 -0.96914,-0.72171 -0.97742,-1.52474z" fill="#323232" stroke="#000000" stroke-width="0.5" stroke-linecap="butt"/><path d="M290.98088,168.74479l-2.09747,-4.94214l-0.56931,-5.86146l5.24268,-2.29258c0,0 1.47889,3.38195 2.21405,5.06311c0.72947,1.66817 2.17998,4.9852 2.17998,4.9852l-2.04102,0.89251l-0.12442,2.37476l-2.24484,0.30665l-0.22974,-1.5449z" fill="#404040" stroke="#000000" stroke-width="0" stroke-linecap="butt"/><path d="M319.82061,167.70629l-0.19785,1.5493l-2.25068,-0.26031l-0.17334,-2.37169l-2.05898,-0.85026c0,0 1.38182,-3.34622 2.07676,-5.02907c0.70034,-1.69595 2.10868,-5.15838 2.10868,-5.15838l5.34006,2.23421l-0.49907,5.87247l-1.99516,4.98433z" data-paper-data="{&quot;index&quot;:null}" fill="#404040" stroke="#000000" stroke-width="0" stroke-linecap="butt"/><path d="M293.50436,182.62938l-0.1028,-9.97334l27.2154,-0.28052l0.1028,9.97334z" fill="none" stroke="#111111" stroke-width="1" stroke-linecap="butt"/><text transform="translate(302.03616,179.81649) rotate(-0.58797) scale(0.17346,0.18448) skewX(0.00228)" font-size="40" xml:space="preserve" fill="#ffffff" fill-rule="nonzero" stroke="none" stroke-width="1" stroke-linecap="butt" stroke-linejoin="miter" stroke-miterlimit="10" stroke-dasharray="" stroke-dashoffset="0" font-family="&quot;Microsoft YaHei&quot;, &quot;微软雅黑&quot;, STXihei, &quot;华文细黑&quot;" font-weight="normal" text-anchor="start" style="mix-blend-mode: normal"><tspan x="0" dy="0">FBL</tspan></text><path d="M297.5786,201.6909l-0.03986,-3.86678l8.93797,-0.09213l0.03986,3.86678z" fill="none" stroke="#1d1d1d" stroke-width="0.5" stroke-linecap="butt"/><path d="M297.60213,197.82347c0,0 -0.08004,-7.76579 -0.10454,-10.14239c-0.01328,-1.28809 0.62616,-2.98609 1.23708,-2.99239c1.59309,-0.01642 8.62103,-0.08886 8.62103,-0.08886l0.13525,13.12171z" fill="none" stroke="#1d1d1d" stroke-width="0.5" stroke-linecap="butt"/><path d="M308.48166,201.57852l-0.03985,-3.86678l8.62102,-0.08886l0.03986,3.86678z" data-paper-data="{&quot;index&quot;:null}" fill="none" stroke="#1d1d1d" stroke-width="0.5" stroke-linecap="butt"/><path d="M308.25164,197.7137c-0.06208,-0.02706 -0.00872,-0.8452 -0.00872,-0.8452l-0.12655,-12.27651c0,0 7.02794,-0.07244 8.62103,-0.08886c0.61092,-0.0063 1.28523,1.67817 1.29851,2.96626c0.0245,2.3766 0.10454,10.14238 0.10454,10.14238c0,0 -0.89221,0.0092 -1.65342,0.01704c-0.69573,0.00718 -2.23896,1.16421 -3.79164,1.18022c-1.55267,0.016 -2.79947,-0.3787 -4.44376,-1.09534z" data-paper-data="{&quot;index&quot;:null}" fill="none" stroke="#1d1d1d" stroke-width="0.5" stroke-linecap="butt"/><path d="M287.03184,204.18333c0,0 -0.93124,-1.7791 -0.93616,-2.25572c-0.01941,-1.88271 -0.14409,-13.97959 -0.14409,-13.97959l8.15136,3.55072l-0.06366,5.19847l1.09185,0.24117l0.10947,2.11312l-1.23343,0.26797l-0.04192,3.42303l-2.38346,0.02457l0.07737,2.58579z" fill-opacity="0.17647" fill="#5c5c5c" stroke="#000000" stroke-width="0" stroke-linecap="butt"/><path d="M292.6421,190.41372l1.7026,1.16586l0.21913,4.85815" fill="none" stroke="#000000" stroke-width="1" stroke-linecap="round"/><path d="M294.12858,199.31619l0.11458,2.91507" fill="none" stroke="#000000" stroke-width="1" stroke-linecap="round"/><path d="M322.74032,205.03249l0.02405,-2.58683l-2.38346,0.02457l-0.11247,-3.42144l-1.23869,-0.24249l0.06588,-2.11492l1.08665,-0.26362l-0.1708,-5.19606l8.07644,-3.71799c0,0 0.12469,12.09688 0.1441,13.97959c0.00492,0.47662 -0.88947,2.27454 -0.88947,2.27454z" data-paper-data="{&quot;index&quot;:null}" fill-opacity="0.17647" fill="#5c5c5c" stroke="#000000" stroke-width="0" stroke-linecap="butt"/><path d="M319.65252,196.17912l0.11895,-4.86163l1.67821,-1.2007" data-paper-data="{&quot;index&quot;:null}" fill="none" stroke="#000000" stroke-width="1" stroke-linecap="round"/><path d="M320.14699,199.04801l-0.05447,2.9168" data-paper-data="{&quot;index&quot;:null}" fill="none" stroke="#000000" stroke-width="1" stroke-linecap="round"/><path d="M286.33192,187.9441c0,0 -0.02572,-2.49681 -0.0453,-4.39503c-0.00611,-0.59286 3.87421,-1.3687 3.86439,-2.32211c-0.04806,-4.66259 -0.63431,-12.33468 -0.63431,-12.33468l3.63174,-0.29101c0,0 0.12725,12.34471 0.16204,15.72069c0.00972,0.94275 -3.69373,4.95389 -3.69373,4.95389z" fill="url(#color-1)" stroke="none" stroke-width="0" stroke-linecap="butt"/></g></g></svg>