<svg version="1.1" xmlns="http://www.w3.org/2000/svg" xmlns:xlink="http://www.w3.org/1999/xlink" width="109.12021" height="43.5864" viewBox="0,0,109.12021,43.5864"><defs><linearGradient x1="335.3305" y1="185.95561" x2="335.3305" y2="191.79413" gradientUnits="userSpaceOnUse" id="color-1"><stop offset="0" stop-color="#ff3d05"/><stop offset="1" stop-color="#ff7a42"/></linearGradient><linearGradient x1="335.3305" y1="185.95561" x2="335.3305" y2="191.79413" gradientUnits="userSpaceOnUse" id="color-2"><stop offset="0" stop-color="#ff3d05"/><stop offset="1" stop-color="#ff9165"/></linearGradient><linearGradient x1="332.4379" y1="166.0943" x2="336.3129" y2="166.0943" gradientUnits="userSpaceOnUse" id="color-3"><stop offset="0" stop-color="#ff6666"/><stop offset="1" stop-color="#ff980e"/></linearGradient><linearGradient x1="332.4379" y1="166.0943" x2="336.3129" y2="166.0943" gradientUnits="userSpaceOnUse" id="color-4"><stop offset="0" stop-color="#ff6666"/><stop offset="1" stop-color="#ff980e"/></linearGradient><linearGradient x1="352.1379" y1="166.0943" x2="356.0129" y2="166.0943" gradientUnits="userSpaceOnUse" id="color-5"><stop offset="0" stop-color="#ff6666"/><stop offset="1" stop-color="#ff980e"/></linearGradient><linearGradient x1="352.1379" y1="166.0943" x2="356.0129" y2="166.0943" gradientUnits="userSpaceOnUse" id="color-6"><stop offset="0" stop-color="#ff6666"/><stop offset="1" stop-color="#ff980e"/></linearGradient><linearGradient x1="334.3129" y1="163.6568" x2="336.3129" y2="163.6568" gradientUnits="userSpaceOnUse" id="color-7"><stop offset="0" stop-color="#ff6666"/><stop offset="1" stop-color="#ff980e"/></linearGradient><linearGradient x1="334.3129" y1="163.6568" x2="336.3129" y2="163.6568" gradientUnits="userSpaceOnUse" id="color-8"><stop offset="0" stop-color="#ff6666"/><stop offset="1" stop-color="#ff980e"/></linearGradient><linearGradient x1="354.0129" y1="163.6568" x2="356.0129" y2="163.6568" gradientUnits="userSpaceOnUse" id="color-9"><stop offset="0" stop-color="#ff6666"/><stop offset="1" stop-color="#ff980e"/></linearGradient><linearGradient x1="334.5129" y1="160.3068" x2="336.3129" y2="160.3068" gradientUnits="userSpaceOnUse" id="color-10"><stop offset="0" stop-color="#ff6666"/><stop offset="1" stop-color="#ff980e"/></linearGradient><linearGradient x1="334.5129" y1="160.3068" x2="336.3129" y2="160.3068" gradientUnits="userSpaceOnUse" id="color-11"><stop offset="0" stop-color="#ff6666"/><stop offset="1" stop-color="#ff980e"/></linearGradient><linearGradient x1="353.5129" y1="160.8068" x2="356.0129" y2="160.8068" gradientUnits="userSpaceOnUse" id="color-12"><stop offset="0" stop-color="#ff6666"/><stop offset="1" stop-color="#ff980e"/></linearGradient><linearGradient x1="353.5129" y1="160.8068" x2="356.0129" y2="160.8068" gradientUnits="userSpaceOnUse" id="color-13"><stop offset="0" stop-color="#ff6666"/><stop offset="1" stop-color="#ff980e"/></linearGradient><radialGradient cx="335.15" cy="162.55" r="1.45" gradientUnits="userSpaceOnUse" id="color-14"><stop offset="0" stop-color="#ff6666"/><stop offset="1" stop-color="#ff980e"/></radialGradient><radialGradient cx="336.05" cy="163.65" r="1.45" gradientUnits="userSpaceOnUse" id="color-15"><stop offset="0" stop-color="#ff6666"/><stop offset="1" stop-color="#ff980e"/></radialGradient><radialGradient cx="354.75" cy="163.15" r="1.45" gradientUnits="userSpaceOnUse" id="color-16"><stop offset="0" stop-color="#ff6666"/><stop offset="1" stop-color="#ff980e"/></radialGradient><radialGradient cx="356.55" cy="164.05" r="1.45" gradientUnits="userSpaceOnUse" id="color-17"><stop offset="0" stop-color="#ff6666"/><stop offset="1" stop-color="#ff980e"/></radialGradient><linearGradient x1="300.7716" y1="176.66335" x2="354.1562" y2="176.66335" gradientUnits="userSpaceOnUse" id="color-18"><stop offset="0" stop-color="#ffec70"/><stop offset="1" stop-color="#9eff66"/></linearGradient><linearGradient x1="300.7716" y1="176.66335" x2="354.1562" y2="176.66335" gradientUnits="userSpaceOnUse" id="color-19"><stop offset="0" stop-color="#ffec72"/><stop offset="1" stop-color="#9eff66"/></linearGradient><linearGradient x1="326.6861" y1="174.24455" x2="360.575" y2="174.24455" gradientUnits="userSpaceOnUse" id="color-20"><stop offset="0" stop-color="#6ba0ff"/><stop offset="1" stop-color="#9366ff"/></linearGradient><linearGradient x1="326.6861" y1="174.24455" x2="360.575" y2="174.24455" gradientUnits="userSpaceOnUse" id="color-21"><stop offset="0" stop-color="#66a7ff"/><stop offset="1" stop-color="#9366ff"/></linearGradient><linearGradient x1="271.443" y1="187.6682" x2="360.443" y2="187.6682" gradientUnits="userSpaceOnUse" id="color-22"><stop offset="0" stop-color="#ff6666"/><stop offset="1" stop-color="#ff980e"/></linearGradient><linearGradient x1="271.443" y1="187.6682" x2="360.443" y2="187.6682" gradientUnits="userSpaceOnUse" id="color-23"><stop offset="0" stop-color="#ff6666"/><stop offset="1" stop-color="#ffcc66"/></linearGradient><radialGradient cx="296.31818" cy="185.31818" r="30.63885" gradientUnits="userSpaceOnUse" id="color-24"><stop offset="0" stop-color="#ff0000"/><stop offset="1" stop-color="#ff980e"/></radialGradient><linearGradient x1="333.5055" y1="182.80825" x2="350.0889" y2="182.80825" gradientUnits="userSpaceOnUse" id="color-25"><stop offset="0" stop-color="#ff6666"/><stop offset="1" stop-color="#f7a335"/></linearGradient><linearGradient x1="333.5055" y1="182.80825" x2="350.0889" y2="182.80825" gradientUnits="userSpaceOnUse" id="color-26"><stop offset="0" stop-color="#ff6666"/><stop offset="1" stop-color="#f7a234"/></linearGradient><linearGradient x1="350.0889" y1="182.8557" x2="354.7555" y2="182.8557" gradientUnits="userSpaceOnUse" id="color-27"><stop offset="0" stop-color="#ff6666"/><stop offset="1" stop-color="#ff980e"/></linearGradient><linearGradient x1="350.0889" y1="182.8557" x2="354.7555" y2="182.8557" gradientUnits="userSpaceOnUse" id="color-28"><stop offset="0" stop-color="#ff6666"/><stop offset="1" stop-color="#ff980e"/></linearGradient><radialGradient cx="297.13637" cy="188.86364" r="4.8625" gradientUnits="userSpaceOnUse" id="color-29"><stop offset="0" stop-color="#ff0000"/><stop offset="1" stop-color="#ff980e"/></radialGradient><linearGradient x1="364.3194" y1="180.82235" x2="365.3194" y2="180.82235" gradientUnits="userSpaceOnUse" id="color-30"><stop offset="0" stop-color="#66a7ff"/><stop offset="1" stop-color="#9366ff"/></linearGradient><radialGradient cx="335.31818" cy="171.40909" r="2.79165" gradientUnits="userSpaceOnUse" id="color-31"><stop offset="0" stop-color="#2b75ff"/><stop offset="1" stop-color="#6c2cff"/></radialGradient><radialGradient cx="357.22728" cy="173.04546" r="7.73865" gradientUnits="userSpaceOnUse" id="color-32"><stop offset="0" stop-color="#6ba0ff"/><stop offset="1" stop-color="#9366ff"/></radialGradient><radialGradient cx="353.68182" cy="171.86364" r="7.73865" gradientUnits="userSpaceOnUse" id="color-33"><stop offset="0" stop-color="#6ba0ff"/><stop offset="1" stop-color="#9366ff"/></radialGradient><linearGradient x1="351.29" y1="169.43145" x2="356.04" y2="169.43145" gradientUnits="userSpaceOnUse" id="color-34"><stop offset="0" stop-color="#6ba0ff"/><stop offset="1" stop-color="#9366ff"/></linearGradient><linearGradient x1="351.29" y1="169.43145" x2="356.04" y2="169.43145" gradientUnits="userSpaceOnUse" id="color-35"><stop offset="0" stop-color="#6ba0ff"/><stop offset="1" stop-color="#9366ff"/></linearGradient><linearGradient x1="330.28999" y1="169.25285" x2="336.79" y2="169.25285" gradientUnits="userSpaceOnUse" id="color-36"><stop offset="0" stop-color="#6ba0ff"/><stop offset="1" stop-color="#9366ff"/></linearGradient><linearGradient x1="330.28999" y1="169.25285" x2="336.79" y2="169.25285" gradientUnits="userSpaceOnUse" id="color-37"><stop offset="0" stop-color="#0059ff"/><stop offset="1" stop-color="#4c00ff"/></linearGradient><linearGradient x1="295.88765" y1="177.78201" x2="299.22105" y2="177.78201" gradientUnits="userSpaceOnUse" id="color-38"><stop offset="0" stop-color="#ffa735"/><stop offset="1" stop-color="#ff6b6b"/></linearGradient><linearGradient x1="295.88765" y1="177.78201" x2="299.22105" y2="177.78201" gradientUnits="userSpaceOnUse" id="color-39"><stop offset="0" stop-color="#ff980e"/><stop offset="1" stop-color="#ff0000"/></linearGradient><radialGradient cx="312.40909" cy="197.31818" r="0.725" gradientUnits="userSpaceOnUse" id="color-40"><stop offset="0" stop-color="#ff0000"/><stop offset="1" stop-color="#ff980e"/></radialGradient><radialGradient cx="311.86364" cy="197.77273" r="0.725" gradientUnits="userSpaceOnUse" id="color-41"><stop offset="0" stop-color="#ff0000"/><stop offset="1" stop-color="#ff980e"/></radialGradient><radialGradient cx="295.40909" cy="192.86364" r="0.725" gradientUnits="userSpaceOnUse" id="color-42"><stop offset="0" stop-color="#ff0000"/><stop offset="1" stop-color="#ff980e"/></radialGradient><radialGradient cx="295.40909" cy="192.68182" r="0.725" gradientUnits="userSpaceOnUse" id="color-43"><stop offset="0" stop-color="#ff0000"/><stop offset="1" stop-color="#ff980e"/></radialGradient><radialGradient cx="286.95455" cy="178.68182" r="0.725" gradientUnits="userSpaceOnUse" id="color-44"><stop offset="0" stop-color="#ff0000"/><stop offset="1" stop-color="#ff980e"/></radialGradient><radialGradient cx="287.22728" cy="178.68182" r="0.725" gradientUnits="userSpaceOnUse" id="color-45"><stop offset="0" stop-color="#ff0000"/><stop offset="1" stop-color="#ff980e"/></radialGradient><radialGradient cx="274.68181" cy="180.22728" r="0.725" gradientUnits="userSpaceOnUse" id="color-46"><stop offset="0" stop-color="#ff0000"/><stop offset="1" stop-color="#ff980e"/></radialGradient><radialGradient cx="275.04546" cy="179.95455" r="0.725" gradientUnits="userSpaceOnUse" id="color-47"><stop offset="0" stop-color="#ff0000"/><stop offset="1" stop-color="#ff980e"/></radialGradient><radialGradient cx="323.59091" cy="196.40909" r="0.725" gradientUnits="userSpaceOnUse" id="color-48"><stop offset="0" stop-color="#ff0000"/><stop offset="1" stop-color="#ff980e"/></radialGradient><radialGradient cx="323.5" cy="196.77273" r="0.725" gradientUnits="userSpaceOnUse" id="color-49"><stop offset="0" stop-color="#ff0000"/><stop offset="1" stop-color="#ff980e"/></radialGradient><radialGradient cx="342.40909" cy="197.77273" r="0.725" gradientUnits="userSpaceOnUse" id="color-50"><stop offset="0" stop-color="#ff0000"/><stop offset="1" stop-color="#ff980e"/></radialGradient><radialGradient cx="342.77273" cy="197.68182" r="0.725" gradientUnits="userSpaceOnUse" id="color-51"><stop offset="0" stop-color="#ff0000"/><stop offset="1" stop-color="#ff980e"/></radialGradient><radialGradient cx="327.95455" cy="187.5" r="0.725" gradientUnits="userSpaceOnUse" id="color-52"><stop offset="0" stop-color="#ff0000"/><stop offset="1" stop-color="#ff980e"/></radialGradient><radialGradient cx="328.22728" cy="187.95455" r="0.725" gradientUnits="userSpaceOnUse" id="color-53"><stop offset="0" stop-color="#ff0000"/><stop offset="1" stop-color="#ff980e"/></radialGradient><radialGradient cx="350.31818" cy="187.40909" r="0.725" gradientUnits="userSpaceOnUse" id="color-54"><stop offset="0" stop-color="#ff0000"/><stop offset="1" stop-color="#ff980e"/></radialGradient><radialGradient cx="350.04546" cy="187.77273" r="0.725" gradientUnits="userSpaceOnUse" id="color-55"><stop offset="0" stop-color="#ff0000"/><stop offset="1" stop-color="#ff980e"/></radialGradient><linearGradient x1="340.30839" y1="171.26875" x2="340.30839" y2="186.32238" gradientTransform="translate(-769.15189,-1083.90384) rotate(26.27003) scale(3.44719,3.44719)" gradientUnits="userSpaceOnUse" id="color-56"><stop offset="0" stop-color="#ff6666" stop-opacity="0"/><stop offset="1" stop-color="#ff6666"/></linearGradient><linearGradient x1="379.45999" y1="192.8711" x2="379.47235" y2="192.8711" gradientUnits="userSpaceOnUse" id="color-57"><stop offset="0" stop-color="#ff6666"/><stop offset="1" stop-color="#ff980e"/></linearGradient><linearGradient x1="379.45999" y1="192.8711" x2="379.47235" y2="192.8711" gradientUnits="userSpaceOnUse" id="color-58"><stop offset="0" stop-color="#ff6666"/><stop offset="1" stop-color="#ff980e"/></linearGradient><linearGradient x1="379.52279" y1="192.8711" x2="379.53514" y2="192.8711" gradientUnits="userSpaceOnUse" id="color-59"><stop offset="0" stop-color="#ff6666"/><stop offset="1" stop-color="#ff980e"/></linearGradient><linearGradient x1="379.52279" y1="192.8711" x2="379.53514" y2="192.8711" gradientUnits="userSpaceOnUse" id="color-60"><stop offset="0" stop-color="#ff6666"/><stop offset="1" stop-color="#ff980e"/></linearGradient><linearGradient x1="379.46597" y1="192.86333" x2="379.47235" y2="192.86333" gradientUnits="userSpaceOnUse" id="color-61"><stop offset="0" stop-color="#ff6666"/><stop offset="1" stop-color="#ff980e"/></linearGradient><linearGradient x1="379.46597" y1="192.86333" x2="379.47235" y2="192.86333" gradientUnits="userSpaceOnUse" id="color-62"><stop offset="0" stop-color="#ff6666"/><stop offset="1" stop-color="#ff980e"/></linearGradient><linearGradient x1="379.52876" y1="192.86333" x2="379.53514" y2="192.86333" gradientUnits="userSpaceOnUse" id="color-63"><stop offset="0" stop-color="#ff6666"/><stop offset="1" stop-color="#ff980e"/></linearGradient><linearGradient x1="379.46661" y1="192.85265" x2="379.47235" y2="192.85265" gradientUnits="userSpaceOnUse" id="color-64"><stop offset="0" stop-color="#ff6666"/><stop offset="1" stop-color="#ff980e"/></linearGradient><linearGradient x1="379.46661" y1="192.85265" x2="379.47235" y2="192.85265" gradientUnits="userSpaceOnUse" id="color-65"><stop offset="0" stop-color="#ff6666"/><stop offset="1" stop-color="#ff980e"/></linearGradient><linearGradient x1="379.52717" y1="192.85424" x2="379.53514" y2="192.85424" gradientUnits="userSpaceOnUse" id="color-66"><stop offset="0" stop-color="#ff6666"/><stop offset="1" stop-color="#ff980e"/></linearGradient><linearGradient x1="379.52717" y1="192.85424" x2="379.53514" y2="192.85424" gradientUnits="userSpaceOnUse" id="color-67"><stop offset="0" stop-color="#ff6666"/><stop offset="1" stop-color="#ff980e"/></linearGradient><radialGradient cx="379.46864" cy="192.8598" r="0.00462" gradientUnits="userSpaceOnUse" id="color-68"><stop offset="0" stop-color="#ff6666"/><stop offset="1" stop-color="#ff980e"/></radialGradient><radialGradient cx="379.47151" cy="192.86331" r="0.00462" gradientUnits="userSpaceOnUse" id="color-69"><stop offset="0" stop-color="#ff6666"/><stop offset="1" stop-color="#ff980e"/></radialGradient><radialGradient cx="379.53111" cy="192.86171" r="0.00462" gradientUnits="userSpaceOnUse" id="color-70"><stop offset="0" stop-color="#ff6666"/><stop offset="1" stop-color="#ff980e"/></radialGradient><radialGradient cx="379.53685" cy="192.86458" r="0.00462" gradientUnits="userSpaceOnUse" id="color-71"><stop offset="0" stop-color="#ff6666"/><stop offset="1" stop-color="#ff980e"/></radialGradient><linearGradient x1="379.35906" y1="192.90479" x2="379.52922" y2="192.90479" gradientUnits="userSpaceOnUse" id="color-72"><stop offset="0" stop-color="#ffeb66"/><stop offset="1" stop-color="#9eff66"/></linearGradient><linearGradient x1="379.35906" y1="192.90479" x2="379.52922" y2="192.90479" gradientUnits="userSpaceOnUse" id="color-73"><stop offset="0" stop-color="#ffeb66"/><stop offset="1" stop-color="#9eff66"/></linearGradient><radialGradient cx="379.48337" cy="192.88311" r="0.05401" gradientUnits="userSpaceOnUse" id="color-74"><stop offset="0" stop-color="#6ba0ff"/><stop offset="1" stop-color="#9366ff"/></radialGradient><linearGradient x1="379.44166" y1="192.89708" x2="379.54968" y2="192.89708" gradientUnits="userSpaceOnUse" id="color-75"><stop offset="0" stop-color="#66a7ff"/><stop offset="1" stop-color="#9366ff"/></linearGradient><radialGradient cx="379.37761" cy="192.95352" r="0.14184" gradientUnits="userSpaceOnUse" id="color-76"><stop offset="0" stop-color="#ff6666"/><stop offset="1" stop-color="#ff980e"/></radialGradient><linearGradient x1="379.26558" y1="192.93986" x2="379.54926" y2="192.93986" gradientUnits="userSpaceOnUse" id="color-77"><stop offset="0" stop-color="#ff6666"/><stop offset="1" stop-color="#ffcc66"/></linearGradient><radialGradient cx="379.50829" cy="192.92455" r="0.02643" gradientUnits="userSpaceOnUse" id="color-78"><stop offset="0" stop-color="#6ba0ff"/><stop offset="1" stop-color="#9366ff"/></radialGradient><radialGradient cx="379.50742" cy="192.92339" r="0.02643" gradientUnits="userSpaceOnUse" id="color-79"><stop offset="0" stop-color="#6ba0ff"/><stop offset="1" stop-color="#9366ff"/></radialGradient><radialGradient cx="379.52423" cy="192.92513" r="0.00744" gradientUnits="userSpaceOnUse" id="color-80"><stop offset="0" stop-color="#6ba0ff"/><stop offset="1" stop-color="#9366ff"/></radialGradient><linearGradient x1="379.54578" y1="192.92218" x2="379.55683" y2="192.92218" gradientUnits="userSpaceOnUse" id="color-81"><stop offset="0" stop-color="#66a7ff"/><stop offset="1" stop-color="#9366ff"/></linearGradient><linearGradient x1="379.54578" y1="192.92218" x2="379.55683" y2="192.92218" gradientUnits="userSpaceOnUse" id="color-82"><stop offset="0" stop-color="#66a7ff"/><stop offset="1" stop-color="#9366ff"/></linearGradient><linearGradient x1="379.55683" y1="192.92218" x2="379.57596" y2="192.92218" gradientUnits="userSpaceOnUse" id="color-83"><stop offset="0" stop-color="#66a7ff"/><stop offset="1" stop-color="#9366ff"/></linearGradient><linearGradient x1="379.55683" y1="192.92218" x2="379.57596" y2="192.92218" gradientUnits="userSpaceOnUse" id="color-84"><stop offset="0" stop-color="#66a7ff"/><stop offset="1" stop-color="#9366ff"/></linearGradient><radialGradient cx="379.53901" cy="192.89325" r="0.02467" gradientUnits="userSpaceOnUse" id="color-85"><stop offset="0" stop-color="#6ba0ff"/><stop offset="1" stop-color="#9366ff"/></radialGradient><radialGradient cx="379.52771" cy="192.88949" r="0.02467" gradientUnits="userSpaceOnUse" id="color-86"><stop offset="0" stop-color="#6ba0ff"/><stop offset="1" stop-color="#9366ff"/></radialGradient><radialGradient cx="379.52887" cy="192.88253" r="0.00757" gradientUnits="userSpaceOnUse" id="color-87"><stop offset="0" stop-color="#6ba0ff"/><stop offset="1" stop-color="#9366ff"/></radialGradient><radialGradient cx="379.53234" cy="192.8863" r="0.00757" gradientUnits="userSpaceOnUse" id="color-88"><stop offset="0" stop-color="#6ba0ff"/><stop offset="1" stop-color="#9366ff"/></radialGradient><radialGradient cx="379.46889" cy="192.88166" r="0.01036" gradientUnits="userSpaceOnUse" id="color-89"><stop offset="0" stop-color="#6ba0ff"/><stop offset="1" stop-color="#9366ff"/></radialGradient><radialGradient cx="379.46599" cy="192.8805" r="0.01036" gradientUnits="userSpaceOnUse" id="color-90"><stop offset="0" stop-color="#6ba0ff"/><stop offset="1" stop-color="#9366ff"/></radialGradient><radialGradient cx="379.35095" cy="192.90774" r="0.00531" gradientUnits="userSpaceOnUse" id="color-91"><stop offset="0" stop-color="#ff0000"/><stop offset="1" stop-color="#ff980e"/></radialGradient><radialGradient cx="379.35501" cy="192.91064" r="0.00531" gradientUnits="userSpaceOnUse" id="color-92"><stop offset="0" stop-color="#ff0000"/><stop offset="1" stop-color="#ff980e"/></radialGradient><radialGradient cx="379.39616" cy="192.97062" r="0.00231" gradientUnits="userSpaceOnUse" id="color-93"><stop offset="0" stop-color="#ff0000"/><stop offset="1" stop-color="#ff980e"/></radialGradient><radialGradient cx="379.39442" cy="192.97207" r="0.00231" gradientUnits="userSpaceOnUse" id="color-94"><stop offset="0" stop-color="#ff0000"/><stop offset="1" stop-color="#ff980e"/></radialGradient><radialGradient cx="379.34197" cy="192.95642" r="0.00231" gradientUnits="userSpaceOnUse" id="color-95"><stop offset="0" stop-color="#ff0000"/><stop offset="1" stop-color="#ff980e"/></radialGradient><radialGradient cx="379.34197" cy="192.95584" r="0.00231" gradientUnits="userSpaceOnUse" id="color-96"><stop offset="0" stop-color="#ff0000"/><stop offset="1" stop-color="#ff980e"/></radialGradient><radialGradient cx="379.31502" cy="192.91122" r="0.00231" gradientUnits="userSpaceOnUse" id="color-97"><stop offset="0" stop-color="#ff0000"/><stop offset="1" stop-color="#ff980e"/></radialGradient><radialGradient cx="379.31589" cy="192.91122" r="0.00231" gradientUnits="userSpaceOnUse" id="color-98"><stop offset="0" stop-color="#ff0000"/><stop offset="1" stop-color="#ff980e"/></radialGradient><radialGradient cx="379.2759" cy="192.91614" r="0.00231" gradientUnits="userSpaceOnUse" id="color-99"><stop offset="0" stop-color="#ff0000"/><stop offset="1" stop-color="#ff980e"/></radialGradient><radialGradient cx="379.27706" cy="192.91528" r="0.00231" gradientUnits="userSpaceOnUse" id="color-100"><stop offset="0" stop-color="#ff0000"/><stop offset="1" stop-color="#ff980e"/></radialGradient><radialGradient cx="379.4318" cy="192.96772" r="0.00231" gradientUnits="userSpaceOnUse" id="color-101"><stop offset="0" stop-color="#ff0000"/><stop offset="1" stop-color="#ff980e"/></radialGradient><radialGradient cx="379.43151" cy="192.96888" r="0.00231" gradientUnits="userSpaceOnUse" id="color-102"><stop offset="0" stop-color="#ff0000"/><stop offset="1" stop-color="#ff980e"/></radialGradient><radialGradient cx="379.49178" cy="192.97207" r="0.00231" gradientUnits="userSpaceOnUse" id="color-103"><stop offset="0" stop-color="#ff0000"/><stop offset="1" stop-color="#ff980e"/></radialGradient><radialGradient cx="379.49294" cy="192.97178" r="0.00231" gradientUnits="userSpaceOnUse" id="color-104"><stop offset="0" stop-color="#ff0000"/><stop offset="1" stop-color="#ff980e"/></radialGradient><radialGradient cx="379.4457" cy="192.93933" r="0.00231" gradientUnits="userSpaceOnUse" id="color-105"><stop offset="0" stop-color="#ff0000"/><stop offset="1" stop-color="#ff980e"/></radialGradient><radialGradient cx="379.44657" cy="192.94077" r="0.00231" gradientUnits="userSpaceOnUse" id="color-106"><stop offset="0" stop-color="#ff0000"/><stop offset="1" stop-color="#ff980e"/></radialGradient><radialGradient cx="379.51699" cy="192.93904" r="0.00231" gradientUnits="userSpaceOnUse" id="color-107"><stop offset="0" stop-color="#ff0000"/><stop offset="1" stop-color="#ff980e"/></radialGradient><radialGradient cx="379.51612" cy="192.94019" r="0.00231" gradientUnits="userSpaceOnUse" id="color-108"><stop offset="0" stop-color="#ff0000"/><stop offset="1" stop-color="#ff980e"/></radialGradient><linearGradient x1="379.36843" y1="192.92755" x2="379.36843" y2="192.97564" gradientTransform="translate(-278014.57246,-370377.75981) rotate(26.14684) scale(1088.08195,1088.08195)" gradientUnits="userSpaceOnUse" id="color-109"><stop offset="0" stop-color="#ff0000"/><stop offset="1" stop-color="#ff6666"/></linearGradient><linearGradient x1="319.11687" y1="171.63473" x2="319.11687" y2="185.09448" gradientTransform="translate(-1621.06486,191.33907) rotate(-36.24973) scale(4.52311,4.52311)" gradientUnits="userSpaceOnUse" id="color-110"><stop offset="0" stop-color="#ff0800"/><stop offset="1" stop-color="#ffca98"/></linearGradient></defs><g transform="translate(-270.31176,-157.8943)"><g data-paper-data="{&quot;isPaintingLayer&quot;:true}" fill-rule="nonzero" stroke-linejoin="miter" stroke-miterlimit="10" stroke-dasharray="" stroke-dashoffset="0" style="mix-blend-mode: normal"><path d="M336.7396,188.99678c0,1.7663 1,2.7273 1,2.7273c0,0 -4.8182,0.7862 -4.8182,-2.9091c0,-3.4226 4.8182,-2.8182 4.8182,-2.8182c0,0 -1,1.6138 -1,3z" data-paper-data="{&quot;index&quot;:null}" fill="url(#color-1)" stroke="url(#color-2)" stroke-width="1.5" stroke-linecap="round"/><path d="M332.4379,167.2193l1.125,-2.25h2.75v2.25z" data-paper-data="{&quot;index&quot;:null}" fill="url(#color-3)" stroke="url(#color-4)" stroke-width="1" stroke-linecap="butt"/><path d="M352.1379,167.2193l1.125,-2.25h2.75v2.25z" data-paper-data="{&quot;index&quot;:null}" fill="url(#color-5)" stroke="url(#color-6)" stroke-width="1" stroke-linecap="butt"/><path d="M336.3129,162.3443v2.625h-2l0.25,-2.625z" data-paper-data="{&quot;index&quot;:null}" fill="url(#color-7)" stroke="url(#color-8)" stroke-width="0.75" stroke-linecap="butt"/><path d="M356.0129,162.3443v2.625h-2l0.25,-2.625z" data-paper-data="{&quot;index&quot;:null}" fill="#8d9293" stroke="url(#color-9)" stroke-width="0.75" stroke-linecap="butt"/><path d="M334.5629,162.3443l-0.05,-4.075h1.8v4.075z" data-paper-data="{&quot;index&quot;:null}" fill="url(#color-10)" stroke="url(#color-11)" stroke-width="0.75" stroke-linecap="butt"/><path d="M354.2629,162.3443l-0.7211,-1.2986l-0.0289,-1.7764h2.5v3.075z" data-paper-data="{&quot;index&quot;:null}" fill="url(#color-12)" stroke="url(#color-13)" stroke-width="0.75" stroke-linecap="butt"/><path d="M333.92539,162.2943c0,-0.8008 0.6492,-1.45 1.45,-1.45c0.8008,0 1.45,0.6492 1.45,1.45c0,0.8008 -0.6492,1.45 -1.45,1.45c-0.8008,0 -1.45,-0.6492 -1.45,-1.45z" data-paper-data="{&quot;index&quot;:null}" fill="url(#color-14)" stroke="url(#color-15)" stroke-width="0.5" stroke-linecap="butt"/><path d="M353.6254,163.1943c0,-0.8008 0.6492,-1.45 1.45,-1.45c0.8008,0 1.45,0.6492 1.45,1.45c0,0.8008 -0.6492,1.45 -1.45,1.45c-0.8008,0 -1.45,-0.6492 -1.45,-1.45z" data-paper-data="{&quot;index&quot;:null}" fill="url(#color-16)" stroke="url(#color-17)" stroke-width="0.5" stroke-linecap="butt"/><path d="M300.7716,178.8172v-3.8462c0,0 0.7046,-0.4615 1.6247,-0.4615c5.1935,0 51.7599,0 51.7599,0v4.3077z" data-paper-data="{&quot;index&quot;:null}" fill="url(#color-18)" stroke="url(#color-19)" stroke-width="1.6" stroke-linecap="butt"/><path d="M345.8485,175.2787v2.8462" data-paper-data="{&quot;index&quot;:null}" fill="none" stroke="#67913c" stroke-width="0.5" stroke-linecap="round"/><path d="M347.8485,175.2787v2.8462" data-paper-data="{&quot;index&quot;:null}" fill="none" stroke="#7cb249" stroke-width="0.5" stroke-linecap="round"/><path d="M335.7972,171.689l-2.7778,5.6667v3.7777h-6.3333v-3.8888l4.4444,-9.8889h26.2223l3.2222,5.5555v6.5556l-1.7778,0.8889l-4.4445,-1.4445v-4.6667h-3.4444l-0.4444,-1.2222z" data-paper-data="{&quot;index&quot;:null}" fill="url(#color-20)" stroke="url(#color-21)" stroke-width="1.5" stroke-linecap="round"/><path d="M271.443,174.8557h29.25v4h25.75v2.5h6.75v-2.5h21l4.75,1.375v3.875h1.5l-0.125,4.5l-0.625,5h-2.5c0,0 0,-2.0525 0,-2.875c0,-0.6184 -1.0771,-1.625 -1.5,-1.625c-1.1898,0 -2.6684,0 -3.5,0c-0.8977,0 -2.25,0.9955 -2.25,2.125c0,0.6808 0,1.4104 0,2c0,2.0782 -4.971,7.25 -7.375,7.25c-2.2998,0 -6.75,0 -6.75,0l1.75,-6h-4l-2.875,-0.875c0,0 -0.0124,0.3069 -0.0226,0.8723c-0.0219,1.2009 -8.141,6.0027 -11.7274,6.0027c-3.0891,0 -8.625,0 -8.625,0l-13.125,-4.125l-0.8125,0.8125c0,0 -11.537,-0.6 -16.0083,-0.6c-3.4464,0 -8.5542,0.6 -8.5542,0.6c0,0 0.2736,-4.4878 0.2372,-11.2446c-0.0344,-6.394 -0.6122,-11.0679 -0.6122,-11.0679zM314.7396,195.6435c3.8353,-0.0909 10.3182,-3.0283 10.3182,-6.2272c0,-2.3807 -1.3011,-3.6818 -8.5,-3.6818c-5.3807,0 -6.9545,1.6647 -6.9545,4.9545c0,3.7444 3.756,4.9873 5.1363,4.9545zM341.6487,193.6435c1.3807,0 3.2273,-0.9374 3.2273,-2.9545c0,-2.1989 -1.5738,-2.9545 -2.9545,-2.9545c-0.7115,0 -0.2684,-1.0984 -2.3625,-1.135c-1.4694,-0.0257 -3.7252,-0.0524 -3.7252,-0.0524c0,0 -3.0025,-0.1039 -2.9578,2.8692c0.0255,1.7004 1.0644,2.7847 3.095,2.7689c1.3117,-0.0103 2.7274,0.0401 2.7274,0.0401c0,0 1.042,1.4183 2.9503,1.4183z" data-paper-data="{&quot;index&quot;:null}" fill="url(#color-22)" stroke="url(#color-23)" stroke-width="2" stroke-linecap="round"/><path d="M333.51939,181.689v3.1667l-0.7222,0.7222h-60.5555" data-paper-data="{&quot;index&quot;:null}" fill="none" stroke="url(#color-24)" stroke-width="1.5" stroke-linecap="round"/><path d="M333.5055,183.80825v-2h16.5834v2z" data-paper-data="{&quot;index&quot;:null}" fill="url(#color-25)" stroke="url(#color-26)" stroke-width="1" stroke-linecap="butt"/><path d="M350.0889,183.8557v-2h3.6666c0,0 1,0.1166 1,1c0,0.8833 -1,1 -1,1z" data-paper-data="{&quot;index&quot;:null}" fill="url(#color-27)" stroke="url(#color-28)" stroke-width="1" stroke-linecap="butt"/><path d="M358.0722,184.2557h-2.45l-0.65,0.65h-2.3v-0.65" data-paper-data="{&quot;index&quot;:null}" fill="none" stroke="#bb6c11" stroke-width="0.5" stroke-linecap="round"/><path d="M297.0222,195.5557c0,0 0,-6.8536 0,-8.45c0,-0.6419 0.6733,-1.2638 0.8986,-1.2684c0.1358,-0.0027 0.3264,-0.0066 0.3264,-0.0066" data-paper-data="{&quot;index&quot;:null}" fill="none" stroke="url(#color-29)" stroke-width="1" stroke-linecap="round"/><path d="M359.3527,183.5557v-2.8667h3.4667v2.8667z" data-paper-data="{&quot;index&quot;:null}" fill="#b595ff" stroke="#b595ff" stroke-width="1.5" stroke-linecap="butt"/><path d="M362.8194,184.289v-4.3333h4.6c0,0 1.0205,2.6793 1.2672,3.4429c0.1195,0.3699 0.1328,0.8904 0.1328,0.8904z" data-paper-data="{&quot;index&quot;:null}" fill="#b595ff" stroke="#b595ff" stroke-width="1.5" stroke-linecap="butt"/><path d="M364.8194,180.489v0.6667" data-paper-data="{&quot;index&quot;:null}" fill="none" stroke="url(#color-30)" stroke-width="1" stroke-linecap="round"/><path d="M362.3527,185.4223v-6.6" data-paper-data="{&quot;index&quot;:null}" fill="none" stroke="#9061ff" stroke-width="1" stroke-linecap="round"/><path d="M329.9567,170.8481l5.5833,0.6667" data-paper-data="{&quot;index&quot;:null}" fill="none" stroke="url(#color-31)" stroke-width="0.5" stroke-linecap="round"/><path d="M360.1006,172.5148v2.3333h-3.3939v-1.5h-1.5l-0.5834,-0.5833h-1.9166l-8.0834,-0.25v-0.5h14.894z" data-paper-data="{&quot;index&quot;:null}" fill="url(#color-32)" stroke="url(#color-33)" stroke-width="0.5" stroke-linecap="round"/><path d="M351.29,171.0981v-3.3333h4.75v3.3333z" data-paper-data="{&quot;index&quot;:null}" fill="url(#color-34)" stroke="url(#color-35)" stroke-width="1" stroke-linecap="butt"/><path d="M330.9567,168.62785h5.8333v1.25h-6.5z" data-paper-data="{&quot;index&quot;:null}" fill="url(#color-36)" stroke="url(#color-37)" stroke-width="0.5" stroke-linecap="round"/><path d="M295.88765,178.94871v-2.3334h3.3334v2.3334z" data-paper-data="{&quot;index&quot;:null}" fill="url(#color-38)" stroke="url(#color-39)" stroke-width="0.5" stroke-linecap="butt"/><g data-paper-data="{&quot;index&quot;:null}" stroke-width="0.5" stroke-linecap="butt"><path d="M311.5722,197.4807c0,-0.4004 0.3246,-0.725 0.725,-0.725c0.4004,0 0.725,0.3246 0.725,0.725c0,0.4004 -0.3246,0.725 -0.725,0.725c-0.4004,0 -0.725,-0.3246 -0.725,-0.725z" fill="url(#color-40)" stroke="url(#color-41)"/><path d="M294.7722,193.0807c0,-0.4004 0.3246,-0.725 0.725,-0.725c0.4004,0 0.725,0.3246 0.725,0.725c0,0.4004 -0.3246,0.725 -0.725,0.725c-0.4004,0 -0.725,-0.3246 -0.725,-0.725z" fill="url(#color-42)" stroke="url(#color-43)"/><path d="M286.12219,178.6807c0,-0.4004 0.3246,-0.725 0.725,-0.725c0.4004,0 0.725,0.3246 0.725,0.725c0,0.4004 -0.3246,0.725 -0.725,0.725c-0.4004,0 -0.725,-0.3246 -0.725,-0.725z" fill="url(#color-44)" stroke="url(#color-45)"/><path d="M274.0222,180.1307c0,-0.4004 0.3246,-0.725 0.725,-0.725c0.4004,0 0.725,0.3246 0.725,0.725c0,0.4004 -0.3246,0.725 -0.725,0.725c-0.4004,0 -0.725,-0.3246 -0.725,-0.725z" fill="url(#color-46)" stroke="url(#color-47)"/><path d="M323.0222,196.4807c0,-0.4004 0.3246,-0.725 0.725,-0.725c0.4004,0 0.725,0.3246 0.725,0.725c0,0.4004 -0.3246,0.725 -0.725,0.725c-0.4004,0 -0.725,-0.3246 -0.725,-0.725z" fill="url(#color-48)" stroke="url(#color-49)"/><path d="M341.7222,197.7307c0,-0.4004 0.3246,-0.725 0.725,-0.725c0.4004,0 0.725,0.3246 0.725,0.725c0,0.4004 -0.3246,0.725 -0.725,0.725c-0.4004,0 -0.725,-0.3246 -0.725,-0.725z" fill="url(#color-50)" stroke="url(#color-51)"/><path d="M327.1722,187.3807c0,-0.4004 0.3246,-0.725 0.725,-0.725c0.4004,0 0.725,0.3246 0.725,0.725c0,0.4004 -0.3246,0.725 -0.725,0.725c-0.4004,0 -0.725,-0.3246 -0.725,-0.725z" fill="url(#color-52)" stroke="url(#color-53)"/><path d="M349.5222,187.3807c0,-0.4004 0.3246,-0.725 0.725,-0.725c0.4004,0 0.725,0.3246 0.725,0.725c0,0.4004 -0.3246,0.725 -0.725,0.725c-0.4004,0 -0.725,-0.3246 -0.725,-0.725z" fill="url(#color-54)" stroke="url(#color-55)"/></g><text transform="translate(343.30881,192.01903) rotate(7.14181) scale(0.35765,0.20957) skewX(-8.3837)" font-size="40" xml:space="preserve" fill="#ff8d22" fill-rule="nonzero" stroke="#ffb566" stroke-width="1" stroke-linecap="butt" stroke-linejoin="miter" stroke-miterlimit="10" stroke-dasharray="" stroke-dashoffset="0" font-family="Sans Serif" font-weight="normal" text-anchor="start" style="mix-blend-mode: normal"><tspan x="0" dy="0">+</tspan></text><text transform="translate(339.24732,183.20065) rotate(-26.27003) scale(0.29009,0.29009)" font-size="40" xml:space="preserve" fill="url(#color-56)" fill-rule="nonzero" stroke="#c6cd00" stroke-width="1" stroke-linecap="butt" stroke-linejoin="miter" stroke-miterlimit="10" stroke-dasharray="" stroke-dashoffset="0" font-family="Serif" font-weight="normal" text-anchor="start" style="mix-blend-mode: normal"><tspan x="0" dy="0">%</tspan></text><path d="" data-paper-data="{&quot;index&quot;:null}" fill="#7d8287" stroke="#000000" stroke-width="1.5" stroke-linecap="round"/><path d="" data-paper-data="{&quot;index&quot;:null}" fill="url(#color-57)" stroke="url(#color-58)" stroke-width="1" stroke-linecap="butt"/><path d="" data-paper-data="{&quot;index&quot;:null}" fill="url(#color-59)" stroke="url(#color-60)" stroke-width="1" stroke-linecap="butt"/><path d="" data-paper-data="{&quot;index&quot;:null}" fill="url(#color-61)" stroke="url(#color-62)" stroke-width="0.75" stroke-linecap="butt"/><path d="" data-paper-data="{&quot;index&quot;:null}" fill="#8d9293" stroke="url(#color-63)" stroke-width="0.75" stroke-linecap="butt"/><path d="" data-paper-data="{&quot;index&quot;:null}" fill="url(#color-64)" stroke="url(#color-65)" stroke-width="0.75" stroke-linecap="butt"/><path d="" data-paper-data="{&quot;index&quot;:null}" fill="url(#color-66)" stroke="url(#color-67)" stroke-width="0.75" stroke-linecap="butt"/><path d="" data-paper-data="{&quot;index&quot;:null}" fill="url(#color-68)" stroke="url(#color-69)" stroke-width="0.5" stroke-linecap="butt"/><path d="" data-paper-data="{&quot;index&quot;:null}" fill="url(#color-70)" stroke="url(#color-71)" stroke-width="0.5" stroke-linecap="butt"/><path d="" data-paper-data="{&quot;index&quot;:null}" fill="url(#color-72)" stroke="url(#color-73)" stroke-width="1.6" stroke-linecap="butt"/><path d="" data-paper-data="{&quot;index&quot;:null}" fill="url(#color-74)" stroke="url(#color-75)" stroke-width="1.5" stroke-linecap="round"/><path d="" data-paper-data="{&quot;index&quot;:null}" fill="url(#color-76)" stroke="url(#color-77)" stroke-width="2" stroke-linecap="round"/><path d="" data-paper-data="{&quot;index&quot;:null}" fill="url(#color-78)" stroke="url(#color-79)" stroke-width="1" stroke-linecap="butt"/><path d="" data-paper-data="{&quot;index&quot;:null}" fill="url(#color-80)" stroke="#000000" stroke-width="1" stroke-linecap="butt"/><path d="" data-paper-data="{&quot;index&quot;:null}" fill="url(#color-81)" stroke="url(#color-82)" stroke-width="1.5" stroke-linecap="butt"/><path d="" data-paper-data="{&quot;index&quot;:null}" fill="url(#color-83)" stroke="url(#color-84)" stroke-width="1.5" stroke-linecap="butt"/><path d="" data-paper-data="{&quot;index&quot;:null}" fill="url(#color-85)" stroke="url(#color-86)" stroke-width="0.5" stroke-linecap="round"/><path d="" data-paper-data="{&quot;index&quot;:null}" fill="url(#color-87)" stroke="url(#color-88)" stroke-width="1" stroke-linecap="butt"/><path d="" data-paper-data="{&quot;index&quot;:null}" fill="url(#color-89)" stroke="url(#color-90)" stroke-width="0.5" stroke-linecap="round"/><path d="" data-paper-data="{&quot;index&quot;:null}" fill="url(#color-91)" stroke="url(#color-92)" stroke-width="0.5" stroke-linecap="butt"/><g data-paper-data="{&quot;index&quot;:null}" stroke-width="0.5" stroke-linecap="butt"><path d="" fill="url(#color-93)" stroke="url(#color-94)"/><path d="" fill="url(#color-95)" stroke="url(#color-96)"/><path d="" fill="url(#color-97)" stroke="url(#color-98)"/><path d="" fill="url(#color-99)" stroke="url(#color-100)"/><path d="" fill="url(#color-101)" stroke="url(#color-102)"/><path d="" fill="url(#color-103)" stroke="url(#color-104)"/><path d="" fill="url(#color-105)" stroke="url(#color-106)"/><path d="" fill="url(#color-107)" stroke="url(#color-108)"/></g><text transform="translate(379.39354,192.90938) rotate(7.0626) scale(0.00114,0.00067) skewX(-8.43241)" font-size="40" xml:space="preserve" fill="#c6cd00" fill-rule="nonzero" stroke="#fffb00" stroke-width="1" stroke-linecap="butt" stroke-linejoin="miter" stroke-miterlimit="10" stroke-dasharray="" stroke-dashoffset="0" font-family="Sans Serif" font-weight="normal" text-anchor="start" style="mix-blend-mode: normal"><tspan x="0" dy="0">+</tspan></text><text transform="translate(379.36502,192.96575) rotate(-26.14684) scale(0.00092,0.00092)" font-size="40" xml:space="preserve" fill="url(#color-109)" fill-rule="nonzero" stroke="#c6cd00" stroke-width="1" stroke-linecap="butt" stroke-linejoin="miter" stroke-miterlimit="10" stroke-dasharray="" stroke-dashoffset="0" font-family="Serif" font-weight="normal" text-anchor="start" style="mix-blend-mode: normal"><tspan x="0" dy="0">%</tspan></text><text transform="translate(344.0564,170.92857) rotate(-18.30936) scale(0.13922,0.08623) skewX(20.33618)" font-size="40" xml:space="preserve" fill="none" fill-rule="nonzero" stroke="#b9bbff" stroke-width="1" stroke-linecap="butt" stroke-linejoin="miter" stroke-miterlimit="10" stroke-dasharray="" stroke-dashoffset="0" font-family="Serif" font-weight="normal" text-anchor="start" style="mix-blend-mode: normal"><tspan x="0" dy="0">@</tspan></text><text transform="translate(314.04152,177.80701) rotate(36.24973) scale(0.22109,0.22109)" font-size="40" xml:space="preserve" fill="url(#color-110)" fill-rule="nonzero" stroke="none" stroke-width="1" stroke-linecap="butt" stroke-linejoin="miter" stroke-miterlimit="10" stroke-dasharray="" stroke-dashoffset="0" font-family="Serif" font-weight="normal" text-anchor="start" style="mix-blend-mode: normal"><tspan x="0" dy="0">；</tspan></text><text transform="translate(276.61647,182.50833) rotate(-0.42023) scale(0.06817,0.09106) skewX(-0.24615)" font-size="40" xml:space="preserve" fill="#ff9071" fill-rule="nonzero" stroke="#000000" stroke-width="2" stroke-linecap="butt" stroke-linejoin="miter" stroke-miterlimit="10" stroke-dasharray="" stroke-dashoffset="0" font-family="Sans Serif" font-weight="normal" text-anchor="start" style="mix-blend-mode: normal"><tspan x="0" dy="0">FEIWU</tspan></text><text transform="translate(286.84445,182.7101) rotate(0.13851) scale(0.06205,0.06356) skewX(0.00799)" font-size="40" xml:space="preserve" fill="#000000" fill-rule="nonzero" stroke="none" stroke-width="1" stroke-linecap="butt" stroke-linejoin="miter" stroke-miterlimit="10" stroke-dasharray="" stroke-dashoffset="0" font-family="Sans Serif" font-weight="normal" text-anchor="start" style="mix-blend-mode: normal"><tspan x="0" dy="0">by.摘睿、Invariant</tspan></text><text transform="translate(304.49421,195.68894) rotate(-38.92081) scale(0.19233,0.19233)" font-size="40" xml:space="preserve" fill-opacity="0" fill="#000000" fill-rule="nonzero" stroke="#ff0000" stroke-width="1" stroke-linecap="butt" stroke-linejoin="miter" stroke-miterlimit="10" stroke-dasharray="" stroke-dashoffset="0" font-family="Sans Serif" font-weight="normal" text-anchor="start" style="mix-blend-mode: normal"><tspan x="0" dy="0">=</tspan></text></g></g></svg>