<svg version="1.1" xmlns="http://www.w3.org/2000/svg" xmlns:xlink="http://www.w3.org/1999/xlink" width="164.07032" height="48.99708" viewBox="0,0,164.07032,48.99708"><defs><linearGradient x1="317.74215" y1="168.03584" x2="329.34215" y2="168.03584" gradientUnits="userSpaceOnUse" id="color-1"><stop offset="0" stop-color="#ff160d"/><stop offset="1" stop-color="#eaee52"/></linearGradient><linearGradient x1="323.54215" y1="165.53582" x2="323.54215" y2="170.53584" gradientUnits="userSpaceOnUse" id="color-2"><stop offset="0" stop-color="#ff1910"/><stop offset="1" stop-color="#ebee52"/></linearGradient><linearGradient x1="328.46018" y1="176.14478" x2="381.73537" y2="176.14478" gradientUnits="userSpaceOnUse" id="color-3"><stop offset="0" stop-color="#f0ed4f"/><stop offset="1" stop-color="#81fb8c"/></linearGradient><linearGradient x1="328.46018" y1="176.14478" x2="381.73537" y2="176.14478" gradientUnits="userSpaceOnUse" id="color-4"><stop offset="0" stop-color="#ecee51"/><stop offset="1" stop-color="#84fb8a"/></linearGradient><linearGradient x1="339.93454" y1="174.4052" x2="349.18964" y2="174.4052" gradientUnits="userSpaceOnUse" id="color-5"><stop offset="0" stop-color="#f0ed4f"/><stop offset="1" stop-color="#81fb8c"/></linearGradient><linearGradient x1="349.05954" y1="173.07729" x2="352.05954" y2="173.07729" gradientUnits="userSpaceOnUse" id="color-6"><stop offset="0" stop-color="#f0ed4f"/><stop offset="1" stop-color="#81fb8c"/></linearGradient><linearGradient x1="353.68454" y1="162.33979" x2="368.93454" y2="162.33979" gradientUnits="userSpaceOnUse" id="color-7"><stop offset="0" stop-color="#f0ed4f"/><stop offset="1" stop-color="#81fb8c"/></linearGradient><linearGradient x1="353.68454" y1="162.33979" x2="368.93454" y2="162.33979" gradientUnits="userSpaceOnUse" id="color-8"><stop offset="0" stop-color="#f0ec00"/><stop offset="1" stop-color="#00fa15"/></linearGradient><linearGradient x1="373.05954" y1="164.51942" x2="400.43454" y2="164.51942" gradientUnits="userSpaceOnUse" id="color-9"><stop offset="0" stop-color="#373dff"/><stop offset="1" stop-color="#b09eff"/></linearGradient><linearGradient x1="373.05954" y1="164.51942" x2="400.43454" y2="164.51942" gradientUnits="userSpaceOnUse" id="color-10"><stop offset="0" stop-color="#373dff"/><stop offset="1" stop-color="#b09eff"/></linearGradient><linearGradient x1="381.43454" y1="165.02729" x2="397.80954" y2="165.02729" gradientUnits="userSpaceOnUse" id="color-11"><stop offset="0" stop-color="#0008ff"/><stop offset="1" stop-color="#c5c0ff"/></linearGradient><linearGradient x1="287.29876" y1="176.64712" x2="319.15958" y2="176.64712" gradientUnits="userSpaceOnUse" id="color-12"><stop offset="0" stop-color="#ff3e3b"/><stop offset="1" stop-color="#ffd39e"/></linearGradient><linearGradient x1="287.29876" y1="176.64712" x2="319.15958" y2="176.64712" gradientUnits="userSpaceOnUse" id="color-13"><stop offset="0" stop-color="#ff433c"/><stop offset="1" stop-color="#ffcb98"/></linearGradient><linearGradient x1="291.72203" y1="171.41479" x2="318.59703" y2="171.41479" gradientUnits="userSpaceOnUse" id="color-14"><stop offset="0" stop-color="#ff0800"/><stop offset="1" stop-color="#ffca98"/></linearGradient><linearGradient x1="400.43454" y1="163.22868" x2="435.18455" y2="163.22868" gradientUnits="userSpaceOnUse" id="color-15"><stop offset="0" stop-color="#ff0000"/><stop offset="1" stop-color="#ffc706"/></linearGradient><linearGradient x1="400.43454" y1="163.22868" x2="435.18455" y2="163.22868" gradientUnits="userSpaceOnUse" id="color-16"><stop offset="0" stop-color="#ff0000"/><stop offset="1" stop-color="#ffc706"/></linearGradient><linearGradient x1="341.80954" y1="173.52729" x2="344.05954" y2="173.52729" gradientUnits="userSpaceOnUse" id="color-17"><stop offset="0" stop-color="#f0ed4f"/><stop offset="1" stop-color="#81fb8c"/></linearGradient><linearGradient x1="353.07755" y1="186.70586" x2="374.02367" y2="186.70586" gradientUnits="userSpaceOnUse" id="color-18"><stop offset="0" stop-color="#ecee51"/><stop offset="1" stop-color="#81fb8c"/></linearGradient><linearGradient x1="353.07755" y1="186.70586" x2="374.02367" y2="186.70586" gradientUnits="userSpaceOnUse" id="color-19"><stop offset="0" stop-color="#81fb8c"/><stop offset="1" stop-color="#f0ed4f"/></linearGradient><linearGradient x1="327.77571" y1="170.50345" x2="343.68259" y2="170.50345" gradientUnits="userSpaceOnUse" id="color-20"><stop offset="0" stop-color="#f0ed4f"/><stop offset="1" stop-color="#81fb8c"/></linearGradient><linearGradient x1="327.77571" y1="170.50345" x2="343.68259" y2="170.50345" gradientUnits="userSpaceOnUse" id="color-21"><stop offset="0" stop-color="#f0ec00"/><stop offset="1" stop-color="#00fa15"/></linearGradient><linearGradient x1="333.53818" y1="159.2387" x2="377.20485" y2="159.2387" gradientUnits="userSpaceOnUse" id="color-22"><stop offset="0" stop-color="#ecee51"/><stop offset="1" stop-color="#84fb8a"/></linearGradient><radialGradient cx="447.33032" cy="164.90912" r="7.11111" gradientUnits="userSpaceOnUse" id="color-23"><stop offset="0" stop-color="#ff0000"/><stop offset="1" stop-color="#ffc706"/></radialGradient><radialGradient cx="442.53024" cy="165.45406" r="7.11111" gradientUnits="userSpaceOnUse" id="color-24"><stop offset="0" stop-color="#ff0000"/><stop offset="1" stop-color="#ffc706"/></radialGradient><linearGradient x1="430.30802" y1="158.82441" x2="434.53024" y2="158.82441" gradientUnits="userSpaceOnUse" id="color-25"><stop offset="0" stop-color="#ff0000"/><stop offset="1" stop-color="#ffc706"/></linearGradient><linearGradient x1="431.75246" y1="160.46884" x2="433.75246" y2="160.46884" gradientUnits="userSpaceOnUse" id="color-26"><stop offset="0" stop-color="#ff0200"/><stop offset="1" stop-color="#ff9b05"/></linearGradient><linearGradient x1="315.14719" y1="165.53888" x2="315.14719" y2="178.99752" gradientTransform="translate(-1590.26174,202.95834) rotate(-36.24973) scale(4.52304,4.52304)" gradientUnits="userSpaceOnUse" id="color-27"><stop offset="0" stop-color="#ff0800"/><stop offset="1" stop-color="#ffca98"/></linearGradient><radialGradient cx="349.65687" cy="167.11738" r="10.99963" gradientTransform="translate(-1032.83539,67.50299) rotate(-29.83869) scale(2.72435,2.72435)" gradientUnits="userSpaceOnUse" id="color-28"><stop offset="0" stop-color="#cdc900"/><stop offset="1" stop-color="#81fb8c"/></radialGradient></defs><g transform="translate(-286.32103,-153.86577)"><g data-paper-data="{&quot;isPaintingLayer&quot;:true}" fill-rule="nonzero" stroke-linejoin="miter" stroke-miterlimit="10" stroke-dasharray="" stroke-dashoffset="0" style="mix-blend-mode: normal"><path d="M317.74215,170.53584v-5h11.6v5z" fill="url(#color-1)" stroke="url(#color-2)" stroke-width="1.5" stroke-linecap="butt"/><path d="M399.41913,169.57997l-22.88889,0.22222" fill="none" stroke="#9588ff" stroke-width="1.5" stroke-linecap="round"/><path d="M329.05954,173.38443v-7.375l5,-5.375l47.625,-0.375l0.05083,2.95258l-7.08956,0.11909l-0.07538,8.10267l-33.26149,1.43635c0,0 0.3393,2.56282 -0.34143,5.12279c-0.47066,1.76999 -1.95091,3.40813 -2.22898,4.73165c-0.66103,3.1463 -1.45511,9.30558 -1.45511,9.30558l-8.45515,-1.07493c0,0 -0.81682,-3.0186 -0.01691,-6.16563c0.77288,-3.04072 3.16303,-6.18472 3.18398,-7.77605c0.02643,-2.00782 -2.93578,-3.62909 -2.93578,-3.62909z" fill="url(#color-3)" stroke="url(#color-4)" stroke-width="2" stroke-linecap="butt"/><path d="M348.93454,171.52729c0,0 0.87046,3.96472 -0.60452,4.90706c-1.52346,0.97332 -8.39548,0.84294 -8.39548,0.84294" fill="none" stroke="url(#color-5)" stroke-width="1" stroke-linecap="round"/><path d="M349.05954,174.25229v-2.35h3v2.35z" fill="none" stroke="url(#color-6)" stroke-width="1" stroke-linecap="butt"/><path d="M351.43454,177.50229l0.5,-2.625" fill="none" stroke="#81fb8c" stroke-width="1" stroke-linecap="round"/><path d="M353.68454,164.02729v-1.625l1.87034,-0.13865l3.25466,-1.61135h10.125v3.375z" fill="url(#color-7)" stroke="url(#color-8)" stroke-width="1" stroke-linecap="butt"/><path d="M330.55954,161.15229h26.375" fill="none" stroke="#4b9351" stroke-width="0.5" stroke-linecap="round"/><path d="M319.03817,162.03232l8.68208,-1.03184h2.1875l1.8125,-1.8125h12.125" fill="none" stroke="#aaad3b" stroke-width="1" stroke-linecap="round"/><path d="M373.05954,169.77729l0.04324,-7.64803l7.33176,-0.10197l0.03341,-3.79084l19.96659,0.04084v10.125c0,0 -9.99806,0.27473 -17.30035,0.97488c-4.14524,0.39746 -6.57459,1.3556 -7.92337,1.42334c-1.05311,0.0529 -2.15128,-1.02322 -2.15128,-1.02322z" fill="url(#color-9)" stroke="url(#color-10)" stroke-width="2" stroke-linecap="butt"/><path d="M388.55954,163.40229v-3.25h9.25v3.25z" fill="none" stroke="#c5c0ff" stroke-width="1" stroke-linecap="butt"/><path d="M397.80954,165.02729h-16.375" fill="none" stroke="url(#color-11)" stroke-width="1" stroke-linecap="round"/><path d="M289.72687,185.02562c-0.39819,-2.94663 -1.79716,-13.29894 -2.40584,-17.80326c-0.17646,-1.30576 0.71963,-2.12007 1.8385,-2.12007c4.20403,0 30,0 30,0v6.25c0,0 0.0383,2.53523 -2.00339,4.08036c-0.88352,0.66864 -2.06211,1.26626 -3.2219,2.0141c-5.81229,3.74776 -14.1671,8.25385 -17.27793,9.64836c-1.72187,0.77187 -4.00859,1.01798 -5.3594,1.09615c-0.69123,0.04 -1.36414,-1.64199 -1.57004,-3.16564zM297.16496,182.48136c0.32279,0 9.3532,-5.15637 13.15217,-7.06931c0.98208,-0.49452 0.35314,-0.7668 -0.75534,-0.73216c-2.66942,0.08342 -13.64683,0.17647 -13.64683,0.17647c0,0 0.69771,7.625 1.25,7.625z" fill="url(#color-12)" stroke="url(#color-13)" stroke-width="2" stroke-linecap="butt"/><path d="M318.59703,170.97729l-26.875,0.875" fill="none" stroke="url(#color-14)" stroke-width="1" stroke-linecap="round"/><path d="M293.90953,186.97729c0,0 -1.87674,-11.72933 -2.38285,-15.64016c-0.3077,-2.37767 -0.36715,-5.60984 -0.36715,-5.60984" fill="none" stroke="#ff0800" stroke-width="1" stroke-linecap="round"/><path d="M400.43454,167.30507v-8.15278h16.625c0,0 0.06327,3.7548 1.7631,4.5247c1.95657,0.88619 16.28872,0.71134 16.28872,0.71134l0.07319,2.91674zM413.53024,162.08165c-3,0 -10.77778,0 -10.77778,0v2.21092c0,0 7.77778,0 10.77778,0c0,0 1,0 1,-1.10546c0,-1.10546 -1,-1.10546 -1,-1.10546z" fill="url(#color-15)" stroke="url(#color-16)" stroke-width="1.5" stroke-linecap="butt"/><path d="M344.05954,175.02729c0,0 -1.15208,-0.74445 -1.505,-1.215c-0.39281,-0.52374 -0.745,-1.785 -0.745,-1.785" fill="none" stroke="url(#color-17)" stroke-width="1.5" stroke-linecap="round"/><path d="M365.37986,201.83715c0,0 -3.43542,-5.13218 -6.25072,-10.27686c-1.19067,-2.17584 -2.27043,-4.66183 -2.93246,-6.26396c-1.76467,-4.27051 -3.11913,-13.23082 -3.11913,-13.23082l11.01881,-0.49093c0,0 1.22963,7.12434 2.71357,10.82722c0.56122,1.40041 1.23972,3.31107 2.24683,5.26875c2.17513,4.22817 4.96691,8.67567 4.96691,8.67567z" fill="url(#color-18)" stroke="url(#color-19)" stroke-width="1.5" stroke-linecap="butt"/><path d="M371.66129,195.67517c0,0 -5.61628,-9.08818 -7.46729,-13.51738c-1.54066,-3.68657 -2.54819,-10.26959 -2.54819,-10.26959" fill="none" stroke="#95fb9e" stroke-width="1" stroke-linecap="round"/><path d="M327.77664,171.22161c-0.02806,-0.74392 0.5815,-1.37084 1.36149,-1.40026c0.28053,-0.01058 3.82554,-0.09362 3.82554,-0.09362l0.89809,-0.85164l9.75161,-0.38557l0.06922,1.83684c0,0 -13.66287,2.15855 -14.44286,2.18796c-0.77999,0.02942 -1.43504,-0.5498 -1.4631,-1.29372z" fill="url(#color-20)" stroke="url(#color-21)" stroke-width="1" stroke-linecap="butt"/><path d="M336.93454,171.52729h-9.5" fill="none" stroke="#81fb8c" stroke-width="1" stroke-linecap="round"/><path d="M350.31496,168.28136c0,-0.27614 0.22386,-0.5 0.5,-0.5c0.27614,0 0.5,0.22386 0.5,0.5c0,0.27614 -0.22386,0.5 -0.5,0.5c-0.27614,0 -0.5,-0.22386 -0.5,-0.5z" fill="#cdc900" stroke="none" stroke-width="0" stroke-linecap="butt"/><path d="M352.43996,168.78136c0,-0.27614 0.22386,-0.5 0.5,-0.5c0.27614,0 0.5,0.22386 0.5,0.5c0,0.27614 -0.22386,0.5 -0.5,0.5c-0.27614,0 -0.5,-0.22386 -0.5,-0.5z" fill="#03fa15" stroke="none" stroke-width="0" stroke-linecap="butt"/><path d="M353.43996,167.46884c0,-0.37969 0.30781,-0.6875 0.6875,-0.6875c0.37969,0 0.6875,0.30781 0.6875,0.6875c0,0.37969 -0.30781,0.6875 -0.6875,0.6875c-0.37969,0 -0.6875,-0.30781 -0.6875,-0.6875z" fill="#01fa15" stroke="none" stroke-width="0" stroke-linecap="butt"/><path d="M367.56496,165.59384c0,-0.44873 0.36377,-0.8125 0.8125,-0.8125c0.44873,0 0.8125,0.36377 0.8125,0.8125c0,0.44873 -0.36377,0.8125 -0.8125,0.8125c-0.44873,0 -0.8125,-0.36377 -0.8125,-0.8125z" fill="#05fa15" stroke="none" stroke-width="0" stroke-linecap="butt"/><path d="M370.06496,165.65634c0,-0.41422 0.33578,-0.75 0.75,-0.75c0.41422,0 0.75,0.33578 0.75,0.75c0,0.41422 -0.33578,0.75 -0.75,0.75c-0.41422,0 -0.75,-0.33578 -0.75,-0.75z" fill="#0bf914" stroke="none" stroke-width="0" stroke-linecap="butt"/><path d="M330.43996,169.15636c0,-0.48325 0.39175,-0.875 0.875,-0.875c0.48325,0 0.875,0.39175 0.875,0.875c0,0.48325 -0.39175,0.875 -0.875,0.875c-0.48325,0 -0.875,-0.39175 -0.875,-0.875z" fill="#cdc900" stroke="none" stroke-width="0" stroke-linecap="butt"/><path d="M328.64829,167.82302v-1.625h3c0,0 0.375,0.54127 0.375,0.78125c0,0.29157 -0.375,0.84375 -0.375,0.84375z" fill="#cdc900" stroke="none" stroke-width="0" stroke-linecap="butt"/><path d="M289.24135,168.89108l2.22222,16.11111" fill="none" stroke="#ff0800" stroke-width="0.5" stroke-linecap="round"/><path d="M333.53818,159.2387h43.66667" fill="none" stroke="url(#color-22)" stroke-width="1.5" stroke-linecap="round"/><path d="M435.41913,166.35772c0,-0.75087 0,-1.56507 0,-2c0,-0.59163 1.20988,-1.46703 1.895,-1.4169c0.8118,0.0594 2.66055,0.30579 2.66055,0.30579c0,0 4.88226,0 6.66667,0c1.19702,0 3,0.22222 3,0.22222v3.88889c0,0 -1.88305,0.22222 -3.11111,0.22222c-1.78266,0 -6.55556,0 -6.55556,0c0,0 -1.98984,0.30524 -2.81602,0.38584c-0.64934,0.06335 -1.73954,-0.73159 -1.73954,-1.60807z" fill="url(#color-23)" stroke="url(#color-24)" stroke-width="1.5" stroke-linecap="butt"/><path d="M430.30802,162.93551l2.33333,-8l1.88889,-0.22222l-0.33333,8.22222z" fill="none" stroke="url(#color-25)" stroke-width="1.5" stroke-linecap="butt"/><path d="M433.75246,160.46884h-2" fill="none" stroke="url(#color-26)" stroke-width="1.5" stroke-linecap="round"/><path d="M445.30802,164.80219h-7.77778" fill="none" stroke="#cecece" stroke-width="0.5" stroke-linecap="round"/><path d="M437.53024,166.13548h7.77778" fill="none" stroke="#cecece" stroke-width="0.5" stroke-linecap="round"/><path d="M434.99215,165.9358v3c0,0 -14.17864,0.07943 -20.50216,0.11486c-5.4444,0.0305 -15.19784,0.28514 -15.19784,0.28514" fill="none" stroke="#ff0b00" stroke-width="1" stroke-linecap="round"/><text transform="translate(292.86647,169.07083) rotate(-0.42023) scale(0.06817,0.09106) skewX(-0.24615)" font-size="40" xml:space="preserve" fill="#ff9071" fill-rule="nonzero" stroke="#000000" stroke-width="2" stroke-linecap="butt" stroke-linejoin="miter" stroke-miterlimit="10" stroke-dasharray="" stroke-dashoffset="0" font-family="Sans Serif" font-weight="normal" text-anchor="start" style="mix-blend-mode: normal"><tspan x="0" dy="0">FEIWU</tspan></text><path d="M367.72504,198.10477c0,0 -6.17329,-9.98954 -8.20788,-14.85803c-1.69347,-4.0522 -2.80092,-11.28812 -2.80092,-11.28812" fill="none" stroke="#95fb9e" stroke-width="1" stroke-linecap="round"/><text transform="translate(310.07273,171.71084) rotate(36.24973) scale(0.22109,0.22109)" font-size="40" xml:space="preserve" fill="url(#color-27)" fill-rule="nonzero" stroke="none" stroke-width="1" stroke-linecap="butt" stroke-linejoin="miter" stroke-miterlimit="10" stroke-dasharray="" stroke-dashoffset="0" font-family="Serif" font-weight="normal" text-anchor="start" style="mix-blend-mode: normal"><tspan x="0" dy="0">；</tspan></text><path d="M336.1165,173.11494c0,0 -0.68785,4.49435 -1.73969,7.01125c-1.26372,3.02391 -5.09807,9.22859 -5.09807,9.22859" data-paper-data="{&quot;index&quot;:null}" fill="none" stroke="#c6cd00" stroke-width="1" stroke-linecap="round"/><text transform="translate(341.18184,167.13831) rotate(29.83869) scale(0.36706,0.36706)" font-size="40" xml:space="preserve" fill="none" fill-rule="nonzero" stroke="url(#color-28)" stroke-width="1" stroke-linecap="butt" stroke-linejoin="miter" stroke-miterlimit="10" stroke-dasharray="" stroke-dashoffset="0" font-family="Serif" font-weight="normal" text-anchor="start" style="mix-blend-mode: normal"><tspan x="0" dy="0">！</tspan></text><text transform="translate(383.07704,171.10262) rotate(-44.46202) scale(0.34266,0.31853) skewX(0.00054)" font-size="40" xml:space="preserve" fill="none" fill-rule="nonzero" stroke="#b9bbff" stroke-width="1" stroke-linecap="butt" stroke-linejoin="miter" stroke-miterlimit="10" stroke-dasharray="" stroke-dashoffset="0" font-family="Serif" font-weight="normal" text-anchor="start" style="mix-blend-mode: normal"><tspan x="0" dy="0">@</tspan></text><text transform="translate(405.52193,167.25685) scale(0.26958,0.26958)" font-size="40" xml:space="preserve" fill="none" fill-rule="nonzero" stroke="#ff928e" stroke-width="1" stroke-linecap="butt" stroke-linejoin="miter" stroke-miterlimit="10" stroke-dasharray="" stroke-dashoffset="0" font-family="Serif" font-weight="normal" text-anchor="start" style="mix-blend-mode: normal"><tspan x="0" dy="0">#</tspan></text><text transform="translate(360.92787,189.14601) rotate(-26.27003) scale(0.29009,0.29009)" font-size="40" xml:space="preserve" fill-opacity="0" fill="#000000" fill-rule="nonzero" stroke="#c6cd00" stroke-width="1" stroke-linecap="butt" stroke-linejoin="miter" stroke-miterlimit="10" stroke-dasharray="" stroke-dashoffset="0" font-family="Serif" font-weight="normal" text-anchor="start" style="mix-blend-mode: normal"><tspan x="0" dy="0">%</tspan></text><text transform="translate(328.58986,183.77422) rotate(12.45092) scale(0.36342,0.36342)" font-size="40" xml:space="preserve" fill="#c6cd00" fill-rule="nonzero" stroke="#fffb00" stroke-width="1" stroke-linecap="butt" stroke-linejoin="miter" stroke-miterlimit="10" stroke-dasharray="" stroke-dashoffset="0" font-family="Sans Serif" font-weight="normal" text-anchor="start" style="mix-blend-mode: normal"><tspan x="0" dy="0">+</tspan></text><text transform="translate(304.68802,168.64551) scale(0.02887,0.04855)" font-size="40" xml:space="preserve" fill="#000000" fill-rule="nonzero" stroke="none" stroke-width="1" stroke-linecap="butt" stroke-linejoin="miter" stroke-miterlimit="10" stroke-dasharray="" stroke-dashoffset="0" font-family="Sans Serif" font-weight="normal" text-anchor="start" style="mix-blend-mode: normal"><tspan x="0" dy="0">by.Invariant、摘睿</tspan></text></g></g></svg>