<svg version="1.1" xmlns="http://www.w3.org/2000/svg" xmlns:xlink="http://www.w3.org/1999/xlink" width="199.81045" height="39.32988" viewBox="0,0,199.81045,39.32988"><defs><linearGradient x1="303.66668" y1="168.52818" x2="322.73518" y2="168.52818" gradientUnits="userSpaceOnUse" id="color-1"><stop offset="0" stop-color="#ff6766"/><stop offset="1" stop-color="#ffc466"/></linearGradient><linearGradient x1="303.66668" y1="168.52818" x2="322.73518" y2="168.52818" gradientUnits="userSpaceOnUse" id="color-2"><stop offset="0" stop-color="#ff6766"/><stop offset="1" stop-color="#ffc466"/></linearGradient><linearGradient x1="306.81854" y1="165.0291" x2="308.61958" y2="165.0291" gradientUnits="userSpaceOnUse" id="color-3"><stop offset="0" stop-color="#ff6766"/><stop offset="1" stop-color="#ffc466"/></linearGradient><linearGradient x1="307.79411" y1="175.31023" x2="309.89535" y2="175.31023" gradientUnits="userSpaceOnUse" id="color-4"><stop offset="0" stop-color="#ff6766"/><stop offset="1" stop-color="#ffc466"/></linearGradient><linearGradient x1="303.74172" y1="162.25249" x2="318.6005" y2="162.25249" gradientUnits="userSpaceOnUse" id="color-5"><stop offset="0" stop-color="#ff6766"/><stop offset="1" stop-color="#ffc466"/></linearGradient><linearGradient x1="379.18937" y1="162.72179" x2="429.67541" y2="162.72179" gradientUnits="userSpaceOnUse" id="color-6"><stop offset="0" stop-color="#fdff66"/><stop offset="1" stop-color="#a6ff66"/></linearGradient><linearGradient x1="379.18937" y1="162.72179" x2="429.67541" y2="162.72179" gradientUnits="userSpaceOnUse" id="color-7"><stop offset="0" stop-color="#fdff66"/><stop offset="1" stop-color="#a6ff66"/></linearGradient><linearGradient x1="340.42564" y1="164.12892" x2="379.17062" y2="164.12892" gradientUnits="userSpaceOnUse" id="color-8"><stop offset="0" stop-color="#ff6666"/><stop offset="1" stop-color="#ffc466"/></linearGradient><linearGradient x1="340.42564" y1="164.12892" x2="379.17062" y2="164.12892" gradientUnits="userSpaceOnUse" id="color-9"><stop offset="0" stop-color="#ff6666"/><stop offset="1" stop-color="#ffc466"/></linearGradient><linearGradient x1="357.32334" y1="175.68542" x2="371.6568" y2="175.68542" gradientUnits="userSpaceOnUse" id="color-10"><stop offset="0" stop-color="#ff6766"/><stop offset="1" stop-color="#ffc466"/></linearGradient><linearGradient x1="357.32334" y1="175.68542" x2="371.6568" y2="175.68542" gradientUnits="userSpaceOnUse" id="color-11"><stop offset="0" stop-color="#ff6766"/><stop offset="1" stop-color="#ffc466"/></linearGradient><linearGradient x1="353.19591" y1="171.35913" x2="357.2483" y2="171.35913" gradientUnits="userSpaceOnUse" id="color-12"><stop offset="0" stop-color="#ff6766"/><stop offset="1" stop-color="#ffc466"/></linearGradient><linearGradient x1="353.19591" y1="171.35913" x2="357.2483" y2="171.35913" gradientUnits="userSpaceOnUse" id="color-13"><stop offset="0" stop-color="#ff6766"/><stop offset="1" stop-color="#ffc466"/></linearGradient><linearGradient x1="348.65491" y1="170.76099" x2="350.64816" y2="170.76099" gradientUnits="userSpaceOnUse" id="color-14"><stop offset="0" stop-color="#ff6766"/><stop offset="1" stop-color="#ffc466"/></linearGradient><linearGradient x1="346.23861" y1="173.09694" x2="356.16698" y2="173.09694" gradientUnits="userSpaceOnUse" id="color-15"><stop offset="0" stop-color="#ff6766"/><stop offset="1" stop-color="#ffc466"/></linearGradient><linearGradient x1="347.6764" y1="158.77265" x2="377.79917" y2="158.77265" gradientUnits="userSpaceOnUse" id="color-16"><stop offset="0" stop-color="#ff6666"/><stop offset="1" stop-color="#ffc466"/></linearGradient><linearGradient x1="375.83911" y1="170.74414" x2="404.20729" y2="170.74414" gradientUnits="userSpaceOnUse" id="color-17"><stop offset="0" stop-color="#fdff66"/><stop offset="1" stop-color="#a6ff66"/></linearGradient><linearGradient x1="375.83911" y1="170.74414" x2="404.20729" y2="170.74414" gradientUnits="userSpaceOnUse" id="color-18"><stop offset="0" stop-color="#fdff66"/><stop offset="1" stop-color="#a6ff66"/></linearGradient><linearGradient x1="373.88188" y1="174.27308" x2="375.57038" y2="174.27308" gradientUnits="userSpaceOnUse" id="color-19"><stop offset="0" stop-color="#ff6766"/><stop offset="1" stop-color="#ffc466"/></linearGradient><linearGradient x1="417.91787" y1="161.27165" x2="424.53678" y2="161.27165" gradientUnits="userSpaceOnUse" id="color-20"><stop offset="0" stop-color="#fdff66"/><stop offset="1" stop-color="#a6ff66"/></linearGradient><linearGradient x1="417.91787" y1="161.27165" x2="424.53678" y2="161.27165" gradientUnits="userSpaceOnUse" id="color-21"><stop offset="0" stop-color="#fdff66"/><stop offset="1" stop-color="#a6ff66"/></linearGradient><linearGradient x1="420.85585" y1="162.62241" x2="423.11843" y2="162.62241" gradientUnits="userSpaceOnUse" id="color-22"><stop offset="0" stop-color="#fdff66"/><stop offset="1" stop-color="#a6ff66"/></linearGradient><linearGradient x1="420.85585" y1="162.62241" x2="423.11843" y2="162.62241" gradientUnits="userSpaceOnUse" id="color-23"><stop offset="0" stop-color="#fdff66"/><stop offset="1" stop-color="#a6ff66"/></linearGradient><linearGradient x1="429.73734" y1="162.18345" x2="445.06889" y2="162.18345" gradientUnits="userSpaceOnUse" id="color-24"><stop offset="0" stop-color="#fdff66"/><stop offset="1" stop-color="#a6ff66"/></linearGradient><linearGradient x1="429.73734" y1="162.18345" x2="445.06889" y2="162.18345" gradientUnits="userSpaceOnUse" id="color-25"><stop offset="0" stop-color="#fdff66"/><stop offset="1" stop-color="#a6ff66"/></linearGradient><linearGradient x1="445.50039" y1="162.29001" x2="501.33334" y2="162.29001" gradientUnits="userSpaceOnUse" id="color-26"><stop offset="0" stop-color="#66a6ff"/><stop offset="1" stop-color="#bf66ff"/></linearGradient><linearGradient x1="445.50039" y1="162.29001" x2="501.33334" y2="162.29001" gradientUnits="userSpaceOnUse" id="color-27"><stop offset="0" stop-color="#66a6ff"/><stop offset="1" stop-color="#bf66ff"/></linearGradient><linearGradient x1="448.67755" y1="162.40257" x2="449.67755" y2="162.40257" gradientUnits="userSpaceOnUse" id="color-28"><stop offset="0" stop-color="#66a6ff"/><stop offset="1" stop-color="#bf66ff"/></linearGradient><linearGradient x1="449.77836" y1="162.32752" x2="451.27836" y2="162.32752" gradientUnits="userSpaceOnUse" id="color-29"><stop offset="0" stop-color="#66a6ff"/><stop offset="1" stop-color="#bf66ff"/></linearGradient><linearGradient x1="451.37915" y1="162.17745" x2="452.37915" y2="162.17745" gradientUnits="userSpaceOnUse" id="color-30"><stop offset="0" stop-color="#66a6ff"/><stop offset="1" stop-color="#bf66ff"/></linearGradient><linearGradient x1="495.83069" y1="162.51513" x2="497.83069" y2="162.51513" gradientUnits="userSpaceOnUse" id="color-31"><stop offset="0" stop-color="#66a6ff"/><stop offset="1" stop-color="#bf66ff"/></linearGradient><linearGradient x1="494.67972" y1="162.32753" x2="495.67972" y2="162.32753" gradientUnits="userSpaceOnUse" id="color-32"><stop offset="0" stop-color="#66a6ff"/><stop offset="1" stop-color="#bf66ff"/></linearGradient><linearGradient x1="306.01923" y1="168.25609" x2="339.98813" y2="168.25609" gradientUnits="userSpaceOnUse" id="color-33"><stop offset="0" stop-color="#ff6766"/><stop offset="1" stop-color="#ffc466"/></linearGradient><linearGradient x1="345.84157" y1="163.9785" x2="371.65681" y2="163.9785" gradientUnits="userSpaceOnUse" id="color-34"><stop offset="0" stop-color="#ff6666"/><stop offset="1" stop-color="#ffc466"/></linearGradient><linearGradient x1="358.54936" y1="175.53537" x2="359.54936" y2="175.53537" gradientUnits="userSpaceOnUse" id="color-35"><stop offset="0" stop-color="#ff6766"/><stop offset="1" stop-color="#ffc466"/></linearGradient><linearGradient x1="361.85133" y1="175.19767" x2="362.85133" y2="175.19767" gradientUnits="userSpaceOnUse" id="color-36"><stop offset="0" stop-color="#ff6766"/><stop offset="1" stop-color="#ffc466"/></linearGradient><linearGradient x1="365.67857" y1="174.89748" x2="366.67857" y2="174.89748" gradientUnits="userSpaceOnUse" id="color-37"><stop offset="0" stop-color="#ff6766"/><stop offset="1" stop-color="#ffc466"/></linearGradient><linearGradient x1="369.05557" y1="174.97249" x2="370.05557" y2="174.97249" gradientUnits="userSpaceOnUse" id="color-38"><stop offset="0" stop-color="#ff6766"/><stop offset="1" stop-color="#ffc466"/></linearGradient><linearGradient x1="359.27449" y1="170.43236" x2="371.6568" y2="170.43236" gradientUnits="userSpaceOnUse" id="color-39"><stop offset="0" stop-color="#ff6766"/><stop offset="1" stop-color="#ffc466"/></linearGradient><linearGradient x1="331.81371" y1="177.19308" x2="348.16794" y2="177.19308" gradientUnits="userSpaceOnUse" id="color-40"><stop offset="0" stop-color="#ff6766"/><stop offset="1" stop-color="#ffc466"/></linearGradient><linearGradient x1="331.81371" y1="177.19308" x2="348.16794" y2="177.19308" gradientUnits="userSpaceOnUse" id="color-41"><stop offset="0" stop-color="#ff6766"/><stop offset="1" stop-color="#ffc466"/></linearGradient><linearGradient x1="328.65641" y1="181.85598" x2="341.86422" y2="181.85598" gradientUnits="userSpaceOnUse" id="color-42"><stop offset="0" stop-color="#ff6766"/><stop offset="1" stop-color="#ffc466"/></linearGradient><linearGradient x1="328.65641" y1="181.85598" x2="341.86422" y2="181.85598" gradientUnits="userSpaceOnUse" id="color-43"><stop offset="0" stop-color="#ff6766"/><stop offset="1" stop-color="#ffc466"/></linearGradient><linearGradient x1="333.75944" y1="181.98917" x2="335.41042" y2="181.98917" gradientUnits="userSpaceOnUse" id="color-44"><stop offset="0" stop-color="#ff6766"/><stop offset="1" stop-color="#ffc466"/></linearGradient><linearGradient x1="343.26513" y1="162.30093" x2="346.54563" y2="162.30093" gradientUnits="userSpaceOnUse" id="color-45"><stop offset="0" stop-color="#ff6666"/><stop offset="1" stop-color="#ffc466"/></linearGradient><linearGradient x1="343.26513" y1="162.30093" x2="346.54563" y2="162.30093" gradientUnits="userSpaceOnUse" id="color-46"><stop offset="0" stop-color="#ff6666"/><stop offset="1" stop-color="#ffc466"/></linearGradient><linearGradient x1="395.09974" y1="162.68687" x2="396.59974" y2="162.68687" gradientUnits="userSpaceOnUse" id="color-47"><stop offset="0" stop-color="#fdff66"/><stop offset="1" stop-color="#a6ff66"/></linearGradient><linearGradient x1="404.16937" y1="163.02454" x2="405.66937" y2="163.02454" gradientUnits="userSpaceOnUse" id="color-48"><stop offset="0" stop-color="#fdff66"/><stop offset="1" stop-color="#a6ff66"/></linearGradient><linearGradient x1="337.57248" y1="153.52069" x2="391.99033" y2="153.52069" gradientUnits="userSpaceOnUse" id="color-49"><stop offset="0" stop-color="#66a6ff"/><stop offset="1" stop-color="#bf66ff"/></linearGradient><linearGradient x1="337.57248" y1="153.52069" x2="391.99033" y2="153.52069" gradientUnits="userSpaceOnUse" id="color-50"><stop offset="0" stop-color="#66a6ff"/><stop offset="1" stop-color="#bf66ff"/></linearGradient><linearGradient x1="383.44911" y1="153.63331" x2="384.94911" y2="153.63331" gradientUnits="userSpaceOnUse" id="color-51"><stop offset="0" stop-color="#66a6ff"/><stop offset="1" stop-color="#bf66ff"/></linearGradient><linearGradient x1="366.6767" y1="155.15294" x2="368.1767" y2="155.15294" gradientUnits="userSpaceOnUse" id="color-52"><stop offset="0" stop-color="#66a6ff"/><stop offset="1" stop-color="#bf66ff"/></linearGradient><linearGradient x1="363.97511" y1="155.26556" x2="365.47511" y2="155.26556" gradientUnits="userSpaceOnUse" id="color-53"><stop offset="0" stop-color="#66a6ff"/><stop offset="1" stop-color="#bf66ff"/></linearGradient><linearGradient x1="354.06927" y1="154.87158" x2="355.56927" y2="154.87158" gradientUnits="userSpaceOnUse" id="color-54"><stop offset="0" stop-color="#66a6ff"/><stop offset="1" stop-color="#bf66ff"/></linearGradient><linearGradient x1="351.2551" y1="155.40623" x2="352.7551" y2="155.40623" gradientUnits="userSpaceOnUse" id="color-55"><stop offset="0" stop-color="#66a6ff"/><stop offset="1" stop-color="#bf66ff"/></linearGradient><linearGradient x1="357.57715" y1="149.2432" x2="360.56016" y2="149.2432" gradientUnits="userSpaceOnUse" id="color-56"><stop offset="0" stop-color="#66a6ff"/><stop offset="1" stop-color="#bf66ff"/></linearGradient><linearGradient x1="357.57715" y1="149.2432" x2="360.56016" y2="149.2432" gradientUnits="userSpaceOnUse" id="color-57"><stop offset="0" stop-color="#66a6ff"/><stop offset="1" stop-color="#bf66ff"/></linearGradient><linearGradient x1="358.0837" y1="148.34268" x2="360.39131" y2="148.34268" gradientUnits="userSpaceOnUse" id="color-58"><stop offset="0" stop-color="#66a6ff"/><stop offset="1" stop-color="#bf66ff"/></linearGradient><linearGradient x1="341.31128" y1="150.70657" x2="345.41996" y2="150.70657" gradientUnits="userSpaceOnUse" id="color-59"><stop offset="0" stop-color="#66a6ff"/><stop offset="1" stop-color="#bf66ff"/></linearGradient><linearGradient x1="341.31128" y1="150.70657" x2="345.41996" y2="150.70657" gradientUnits="userSpaceOnUse" id="color-60"><stop offset="0" stop-color="#66a6ff"/><stop offset="1" stop-color="#bf66ff"/></linearGradient><linearGradient x1="382.93601" y1="153.52075" x2="383.43601" y2="153.52075" gradientUnits="userSpaceOnUse" id="color-61"><stop offset="0" stop-color="#66a6ff"/><stop offset="1" stop-color="#bf66ff"/></linearGradient><linearGradient x1="346.75245" y1="153.43632" x2="348.25245" y2="153.43632" gradientUnits="userSpaceOnUse" id="color-62"><stop offset="0" stop-color="#66a6ff"/><stop offset="1" stop-color="#bf66ff"/></linearGradient><linearGradient x1="348.32184" y1="153.54889" x2="348.82184" y2="153.54889" gradientUnits="userSpaceOnUse" id="color-63"><stop offset="0" stop-color="#66a6ff"/><stop offset="1" stop-color="#bf66ff"/></linearGradient><linearGradient x1="341.31129" y1="149.27138" x2="345.47626" y2="149.27138" gradientUnits="userSpaceOnUse" id="color-64"><stop offset="0" stop-color="#66a6ff"/><stop offset="1" stop-color="#bf66ff"/></linearGradient><linearGradient x1="355.93368" y1="153.52075" x2="361.02168" y2="153.52075" gradientUnits="userSpaceOnUse" id="color-65"><stop offset="0" stop-color="#66a6ff"/><stop offset="1" stop-color="#bf66ff"/></linearGradient><linearGradient x1="355.93368" y1="153.52075" x2="361.02168" y2="153.52075" gradientUnits="userSpaceOnUse" id="color-66"><stop offset="0" stop-color="#66a6ff"/><stop offset="1" stop-color="#bf66ff"/></linearGradient><linearGradient x1="382.85757" y1="156.40848" x2="390.8952" y2="169.13699" gradientTransform="translate(-207.37813,-1442.44561) rotate(58.54085) scale(3.44721,3.44721)" gradientUnits="userSpaceOnUse" id="color-67"><stop offset="0" stop-color="#ff6666" stop-opacity="0"/><stop offset="1" stop-color="#ff6666"/></linearGradient><linearGradient x1="321.95444" y1="155.77862" x2="321.95444" y2="169.23876" gradientTransform="translate(-1588.98543,256.76113) rotate(-36.24973) scale(4.52304,4.52304)" gradientUnits="userSpaceOnUse" id="color-68"><stop offset="0" stop-color="#ff0800"/><stop offset="1" stop-color="#ffca98"/></linearGradient></defs><g transform="translate(-302.5229,-146.49188)"><g data-paper-data="{&quot;isPaintingLayer&quot;:true}" fill-rule="nonzero" stroke-linejoin="miter" stroke-miterlimit="10" stroke-dasharray="" stroke-dashoffset="0" style="mix-blend-mode: normal"><path d="M322.72794,158.5753c0,0 0.03171,3.06561 -0.03758,4.27105c-0.04533,0.78885 -0.33764,2.03267 -0.33764,2.03267h-8.10478l-1.57593,12.90762c0,0 -0.17295,0.79231 -1.47035,0.68419c-1.62847,-0.13571 -7.53497,-1.43463 -7.53497,-1.43463c0,0 0.73839,-4.39447 0.7638,-8.70284c0.01913,-3.24326 -0.69096,-6.5678 -0.60825,-7.20584c0.14192,-1.0948 1.19524,-2.55222 1.19524,-2.55222h17.71045z" data-paper-data="{&quot;index&quot;:null}" fill="url(#color-1)" stroke="url(#color-2)" stroke-width="2" stroke-linecap="round"/><path d="M307.71907,165.92963c-0.49735,0 -0.90053,-0.40319 -0.90053,-0.90054c0,-0.49735 0.40318,-0.90054 0.90053,-0.90054c0.49735,0 0.90053,0.40319 0.90053,0.90054c0,0.49735 -0.40318,0.90054 -0.90053,0.90054z" data-paper-data="{&quot;index&quot;:null}" fill="url(#color-3)" stroke="#000000" stroke-width="0" stroke-linecap="butt"/><path d="M308.84474,176.36083c-0.58024,0 -1.05062,-0.47037 -1.05062,-1.05061c0,-0.58024 0.47038,-1.05062 1.05062,-1.05062c0.58024,0 1.05061,0.47038 1.05061,1.05062c0,0.58023 -0.47037,1.05061 -1.05061,1.05061z" data-paper-data="{&quot;index&quot;:null}" fill="url(#color-4)" stroke="#000000" stroke-width="0" stroke-linecap="butt"/><path d="M318.6005,162.25249h-14.85877" data-paper-data="{&quot;index&quot;:null}" fill="none" stroke="url(#color-5)" stroke-width="1" stroke-linecap="round"/><path d="M428.36534,165.95809h-49.17597v-6.47258h50.48604v5.50772z" data-paper-data="{&quot;index&quot;:null}" fill="url(#color-6)" stroke="url(#color-7)" stroke-width="2" stroke-linecap="butt"/><path d="M340.42901,168.7723c0,0 -0.00242,-2.25576 -0.00336,-3.143c-0.00069,-0.6516 0.62953,-1.72214 1.51474,-1.7377c1.07905,-0.01897 4.49216,-0.21323 4.49216,-0.21323v-4.1928h32.73807v9.28673z" data-paper-data="{&quot;index&quot;:null}" fill="url(#color-8)" stroke="url(#color-9)" stroke-width="2" stroke-linecap="butt"/><path d="M357.32334,182.43944v-13.50798h14.33346v11.70691z" data-paper-data="{&quot;index&quot;:null}" fill="url(#color-10)" stroke="url(#color-11)" stroke-width="1.5" stroke-linecap="butt"/><path d="M354.27001,173.65635c-0.68526,-0.26268 -1.0741,-0.52993 -1.0741,-0.52993v-4.34507h4.05239v5.15555c0,0 -2.31337,-0.02566 -2.9783,-0.28054z" data-paper-data="{&quot;index&quot;:null}" fill="url(#color-12)" stroke="url(#color-13)" stroke-width="1.5" stroke-linecap="butt"/><path d="M349.36491,172.75345c0,0 -1.11585,-1.22756 -0.54978,-2.27765c0.5162,-0.95759 1.83303,-1.7072 1.83303,-1.7072" data-paper-data="{&quot;index&quot;:null}" fill="none" stroke="url(#color-14)" stroke-width="1" stroke-linecap="round"/><path d="M356.16698,173.16646c0,0 -0.82431,-0.22513 -1.39583,-0.22513c-0.56852,0 -0.61393,0.25491 -2.01732,0.29281c-2.45524,0.0663 -6.51522,-0.06767 -6.51522,-0.06767" data-paper-data="{&quot;index&quot;:null}" fill="none" stroke="url(#color-15)" stroke-width="1" stroke-linecap="round"/><path d="M347.6764,158.77265h30.12277" data-paper-data="{&quot;index&quot;:null}" fill="none" stroke="url(#color-16)" stroke-width="2.5" stroke-linecap="round"/><path d="M375.90807,175.45503l-0.06896,-6.56165l3.3088,0.02902l0.0594,2.01584c0,0 1.0237,1.50084 2.78268,1.79532c3.60156,0.60295 9.63885,0.245 11.75254,0.28491c1.67359,0.0316 2.90029,-1.75094 2.90029,-1.75094v-5.23433h7.56447v5.23434l-4.25501,4.18747z" data-paper-data="{&quot;index&quot;:null}" fill="url(#color-17)" stroke="url(#color-18)" stroke-width="2" stroke-linecap="butt"/><path d="M373.88188,175.7252v-2.90421h1.6885" data-paper-data="{&quot;index&quot;:null}" fill="none" stroke="url(#color-19)" stroke-width="1" stroke-linecap="round"/><path d="M419.53882,164.10833l-1.62095,-0.87802v-4.79533h6.61891v5.67336z" data-paper-data="{&quot;index&quot;:null}" fill="url(#color-20)" stroke="url(#color-21)" stroke-width="1.5" stroke-linecap="butt"/><path d="M420.85585,164.10833v-2.33013l0.64163,-0.64163h1.62095v2.97176z" data-paper-data="{&quot;index&quot;:null}" fill="url(#color-22)" stroke="url(#color-23)" stroke-width="1" stroke-linecap="round"/><path d="M429.73734,163.70307v-3.03929h15.33155v3.03929z" data-paper-data="{&quot;index&quot;:null}" fill="url(#color-24)" stroke="url(#color-25)" stroke-width="1.5" stroke-linecap="butt"/><path d="M501.02169,165.52955c-0.07734,0.5027 -0.54062,0.85035 -1.11419,0.85035c-3.8073,0 -43.83075,0 -52.68109,0c-1.10675,0 -1.72602,-0.53473 -1.72602,-1.12566c0,-1.62885 0,-4.67498 0,-5.70337c0,-0.62331 0.61926,-1.3508 1.72602,-1.3508c8.85034,0 48.87379,0 52.68109,0c0.57358,0 1.03875,0.40936 1.11776,0.99683c0.13195,0.98096 0.30808,2.4585 0.30808,3.35575c0,0.80312 -0.17933,2.11691 -0.31165,2.97691z" data-paper-data="{&quot;index&quot;:null}" fill="url(#color-26)" stroke="url(#color-27)" stroke-width="2" stroke-linecap="butt"/><path d="M449.17755,165.92968v-7.05417" data-paper-data="{&quot;index&quot;:null}" fill="none" stroke="url(#color-28)" stroke-width="1" stroke-linecap="round"/><path d="M450.52836,165.85458v-7.05417" data-paper-data="{&quot;index&quot;:null}" fill="none" stroke="url(#color-29)" stroke-width="1.5" stroke-linecap="round"/><path d="M451.87915,158.65034v7.05417" data-paper-data="{&quot;index&quot;:null}" fill="none" stroke="url(#color-30)" stroke-width="1" stroke-linecap="round"/><path d="M496.83069,165.92968v-6.82903" data-paper-data="{&quot;index&quot;:null}" fill="none" stroke="url(#color-31)" stroke-width="2" stroke-linecap="round"/><path d="M495.17972,158.87549v6.90408" data-paper-data="{&quot;index&quot;:null}" fill="none" stroke="url(#color-32)" stroke-width="1" stroke-linecap="round"/><path d="M306.36825,169.08155c0,0 -0.22242,-0.61166 -0.32647,-0.89779c-0.0953,-0.26207 0.11106,-0.75317 0.62665,-0.75317c3.13622,0 33.31967,0 33.31967,0v1.65098z" data-paper-data="{&quot;index&quot;:null}" fill="#5d646b" stroke="url(#color-33)" stroke-width="1" stroke-linecap="butt"/><path d="M313.12226,167.58066v1.05061" data-paper-data="{&quot;index&quot;:null}" fill="none" stroke="#000000" stroke-width="1" stroke-linecap="round"/><path d="M345.84157,163.9785h25.81524" data-paper-data="{&quot;index&quot;:null}" fill="none" stroke="url(#color-34)" stroke-width="1" stroke-linecap="round"/><path d="M359.04936,169.23162v12.60744" data-paper-data="{&quot;index&quot;:null}" fill="none" stroke="url(#color-35)" stroke-width="1" stroke-linecap="round"/><path d="M362.35133,181.46387v-12.53239" data-paper-data="{&quot;index&quot;:null}" fill="none" stroke="url(#color-36)" stroke-width="1" stroke-linecap="round"/><path d="M366.17857,169.15658v11.48178" data-paper-data="{&quot;index&quot;:null}" fill="none" stroke="url(#color-37)" stroke-width="1" stroke-linecap="round"/><path d="M369.55557,169.53181v10.88143" data-paper-data="{&quot;index&quot;:null}" fill="none" stroke="url(#color-38)" stroke-width="1" stroke-linecap="round"/><path d="M359.27449,170.43236h12.38231" data-paper-data="{&quot;index&quot;:null}" fill="none" stroke="url(#color-39)" stroke-width="1" stroke-linecap="round"/><path d="M346.81715,173.65925c0,0 -1.27916,-0.05968 -2.80223,0.79656c-0.40639,0.22846 -1.34883,1.54227 -1.76462,2.08059c-0.82048,1.0623 -0.47548,1.44808 -1.07341,2.82102c-0.33582,0.77108 -0.64685,0.33756 -1.16333,1.29468c-0.57714,1.06952 -1.35481,3.52093 -1.57569,4.1447c-0.25542,0.72131 -1.50946,0.85548 -2.2753,0.6384c-0.86562,-0.24536 -2.8898,-0.81913 -3.9769,-1.12726c-0.43549,-0.12344 -0.49444,-0.60185 -0.14584,-1.2224c1.16875,-2.08051 3.71374,-6.66721 3.72572,-7.17894c0.04015,-1.7163 3.70046,-4.05253 4.16985,-4.79657c0.4694,-0.74405 0.27784,-2.25361 0.27784,-2.25361h7.9547c0,0 -0.78075,1.19344 -0.97556,1.8969c-0.2442,0.88185 -0.37524,2.90594 -0.37524,2.90594z" data-paper-data="{&quot;index&quot;:null}" fill="url(#color-40)" stroke="url(#color-41)" stroke-width="1.5" stroke-linecap="butt"/><path d="M330.23233,179.88792l3.75221,0.15009l7.87965,1.8761c0,0 -0.17823,1.4699 -0.97137,1.66782c-1.38319,0.34516 -6.59364,0.21994 -6.59364,0.21994l-5.64278,-2.41308z" data-paper-data="{&quot;index&quot;:null}" fill="url(#color-42)" stroke="url(#color-43)" stroke-width="1.5" stroke-linecap="butt"/><path d="M334.58493,182.81463c-0.4559,0 -0.82549,-0.36958 -0.82549,-0.82549c0,-0.4559 0.36958,-0.82549 0.82549,-0.82549c0.4559,0 0.82549,0.36957 0.82549,0.82549c0,0.4559 -0.36958,0.82549 -0.82549,0.82549z" data-paper-data="{&quot;index&quot;:null}" fill="url(#color-44)" stroke="#000000" stroke-width="0" stroke-linecap="butt"/><path d="M343.26513,163.74821l0.03405,-2.2589l0.54486,-0.63567h2.70159v2.70159z" data-paper-data="{&quot;index&quot;:null}" fill="url(#color-45)" stroke="url(#color-46)" stroke-width="1.5" stroke-linecap="butt"/><path d="M395.84974,159.9853v5.40319" data-paper-data="{&quot;index&quot;:null}" fill="none" stroke="url(#color-47)" stroke-width="1.5" stroke-linecap="round"/><path d="M404.91937,159.88879v6.27155" data-paper-data="{&quot;index&quot;:null}" fill="none" stroke="url(#color-48)" stroke-width="1.5" stroke-linecap="round"/><path d="M380.50854,156.80122c0,0 -1.67884,0.0003 -2.8753,-0.15995c-1.98712,-0.26614 -7.93108,-1.28734 -7.93108,-1.28734l-20.95193,0.06237c0,0 -3.00193,0.94174 -4.70778,1.1531c-1.97927,0.24523 -6.46997,0.17554 -6.46997,0.17554v-6.39217c0,0 4.46495,-0.06353 6.47532,0.19874c1.64519,0.21463 4.71243,1.14825 4.71243,1.14825l20.94193,-0.05247c0,0 5.8964,-0.99981 7.86554,-1.25852c1.18415,-0.15557 2.84436,-0.14856 2.84436,-0.14856h11.57827v6.56101z" data-paper-data="{&quot;index&quot;:null}" fill="url(#color-49)" stroke="url(#color-50)" stroke-width="1.5" stroke-linecap="butt"/><path d="M384.19911,156.56003v-5.85346" data-paper-data="{&quot;index&quot;:null}" fill="none" stroke="url(#color-51)" stroke-width="1.5" stroke-linecap="round"/><path d="M367.4267,151.94482v6.41629" data-paper-data="{&quot;index&quot;:null}" fill="none" stroke="url(#color-52)" stroke-width="1.5" stroke-linecap="round"/><path d="M364.72511,158.36111v-6.19116" data-paper-data="{&quot;index&quot;:null}" fill="none" stroke="url(#color-53)" stroke-width="1.5" stroke-linecap="round"/><path d="M354.81927,157.85456v-5.96602" data-paper-data="{&quot;index&quot;:null}" fill="none" stroke="url(#color-54)" stroke-width="1.5" stroke-linecap="round"/><path d="M352.0051,158.64253v-6.47257" data-paper-data="{&quot;index&quot;:null}" fill="none" stroke="url(#color-55)" stroke-width="1.5" stroke-linecap="round"/><path d="M357.57715,151.49454v-4.50266h2.98301v4.50266z" data-paper-data="{&quot;index&quot;:null}" fill="url(#color-56)" stroke="url(#color-57)" stroke-width="1" stroke-linecap="butt"/><path d="M358.0837,148.34268h2.30761" data-paper-data="{&quot;index&quot;:null}" fill="none" stroke="url(#color-58)" stroke-width="1" stroke-linecap="round"/><path d="M343.39377,152.11363c-1.14854,0 -2.08249,-0.39399 -2.08249,-0.39399v-2.42018h4.10868v2.42018c0,0 -0.84951,0.39399 -2.0262,0.39399z" data-paper-data="{&quot;index&quot;:null}" fill="url(#color-59)" stroke="url(#color-60)" stroke-width="1" stroke-linecap="butt"/><path d="M383.18601,150.53774v5.96602" data-paper-data="{&quot;index&quot;:null}" fill="none" stroke="url(#color-61)" stroke-width="0.5" stroke-linecap="round"/><path d="M347.50245,155.20924v-3.54584" data-paper-data="{&quot;index&quot;:null}" fill="none" stroke="url(#color-62)" stroke-width="1.5" stroke-linecap="round"/><path d="M348.57184,151.83227v3.43328" data-paper-data="{&quot;index&quot;:null}" fill="none" stroke="url(#color-63)" stroke-width="0.5" stroke-linecap="round"/><path d="M343.39378,148.45523c1.15012,0 2.08248,0.36538 2.08248,0.81611c0,0.45073 -0.93236,0.81611 -2.08248,0.81611c-1.15012,0 -2.08249,-0.36539 -2.08249,-0.81611c0,-0.45072 0.93236,-0.81611 2.08249,-0.81611z" data-paper-data="{&quot;index&quot;:null}" fill="#949eab" stroke="url(#color-64)" stroke-width="1" stroke-linecap="butt"/><path d="M358.47768,156.06473c-1.40501,0 -2.544,-1.13899 -2.544,-2.544c0,-1.40501 1.13899,-2.544 2.544,-2.544c1.40501,0 2.544,1.13899 2.544,2.544c0,1.40501 -1.13899,2.544 -2.544,2.544z" data-paper-data="{&quot;index&quot;:null}" fill="url(#color-65)" stroke="url(#color-66)" stroke-width="1" stroke-linecap="butt"/><text transform="translate(304.86704,160.22374) scale(0.0638,0.0604)" font-size="40" xml:space="preserve" fill="#000000" fill-rule="nonzero" stroke="none" stroke-width="1" stroke-linecap="butt" stroke-linejoin="miter" stroke-miterlimit="10" stroke-dasharray="" stroke-dashoffset="0" font-family="Sans Serif" font-weight="normal" text-anchor="start" style="mix-blend-mode: normal"><tspan x="0" dy="0">by：摘睿</tspan></text><text transform="translate(388.32978,167.06357) rotate(-58.54085) scale(0.29009,0.29009)" font-size="40" xml:space="preserve" fill="url(#color-67)" fill-rule="nonzero" stroke="#c6cd00" stroke-width="1" stroke-linecap="butt" stroke-linejoin="miter" stroke-miterlimit="10" stroke-dasharray="" stroke-dashoffset="0" font-family="Serif" font-weight="normal" text-anchor="start" style="mix-blend-mode: normal"><tspan x="0" dy="0">%</tspan></text><text transform="translate(347.81525,164.14595) rotate(7.14181) scale(0.35765,0.20957) skewX(-8.3837)" font-size="40" xml:space="preserve" fill="#ff8d22" fill-rule="nonzero" stroke="#ffb566" stroke-width="1" stroke-linecap="butt" stroke-linejoin="miter" stroke-miterlimit="10" stroke-dasharray="" stroke-dashoffset="0" font-family="Sans Serif" font-weight="normal" text-anchor="start" style="mix-blend-mode: normal"><tspan x="0" dy="0">+</tspan></text><text transform="translate(349.05641,155.31213) rotate(-30.02003) scale(0.15265,0.13733) skewX(3.19085)" font-size="40" xml:space="preserve" fill="none" fill-rule="nonzero" stroke="#b9bbff" stroke-width="1" stroke-linecap="butt" stroke-linejoin="miter" stroke-miterlimit="10" stroke-dasharray="" stroke-dashoffset="0" font-family="Serif" font-weight="normal" text-anchor="start" style="mix-blend-mode: normal"><tspan x="0" dy="0">@</tspan></text><text transform="translate(316.8789,161.95108) rotate(36.24973) scale(0.22109,0.22109)" font-size="40" xml:space="preserve" fill="url(#color-68)" fill-rule="nonzero" stroke="none" stroke-width="1" stroke-linecap="butt" stroke-linejoin="miter" stroke-miterlimit="10" stroke-dasharray="" stroke-dashoffset="0" font-family="Serif" font-weight="normal" text-anchor="start" style="mix-blend-mode: normal"><tspan x="0" dy="0">；</tspan></text><text transform="translate(338.0367,182.80764) rotate(-56.05209) scale(0.22995,0.21928) skewX(-30.2052)" font-size="40" xml:space="preserve" fill-opacity="0" fill="#000000" fill-rule="nonzero" stroke="#ff0000" stroke-width="1" stroke-linecap="butt" stroke-linejoin="miter" stroke-miterlimit="10" stroke-dasharray="" stroke-dashoffset="0" font-family="Sans Serif" font-weight="normal" text-anchor="start" style="mix-blend-mode: normal"><tspan x="0" dy="0">=</tspan></text></g></g></svg>