<svg version="1.1" xmlns="http://www.w3.org/2000/svg" xmlns:xlink="http://www.w3.org/1999/xlink" width="76.93978" height="118.3674" viewBox="0,0,76.93978,118.3674"><g transform="translate(-299.08834,-131.1908)"><g data-paper-data="{&quot;isPaintingLayer&quot;:true}" fill-rule="nonzero" stroke-linejoin="miter" stroke-miterlimit="10" stroke-dasharray="" stroke-dashoffset="0" style="mix-blend-mode: normal"><path d="M316.47186,224.02159c6.61227,-1.21168 14.70807,-1.97923 14.70807,-1.97923l29.81552,16.5674c0,0 4.89216,0.05346 8.9507,1.04021c6.62846,1.61159 11.73436,7.93828 -6.49102,9.61202c-9.1888,0.84386 -15.56752,-0.19273 -18.87683,-2.12805c-3.3213,-1.94232 -3.50918,-4.37206 -3.50918,-4.37206l-36.9224,-15.69115c0,0 5.67403,-1.83034 12.32514,-3.04914z" data-paper-data="{&quot;index&quot;:null}" fill-opacity="0.25098" fill="#000000" stroke="none" stroke-width="0" stroke-linecap="butt"/><g data-paper-data="{&quot;index&quot;:null}"><path d="M305.56022,225.80288l3.27739,-62.9727c0,0 8.13956,-1.17049 12.40726,-1.17049c4.07272,0 12.64136,1.17049 12.64136,1.17049l3.27739,62.9727c0,0 -8.2194,2.05607 -15.91875,2.10689c-7.74457,0.05112 -15.68465,-2.10689 -15.68465,-2.10689z" data-paper-data="{&quot;index&quot;:null}" fill="#eaeaea" stroke="#000000" stroke-width="3" stroke-linecap="butt"/><path d="M309.403,222.15639l2.69309,-51.74579c0,0 6.68842,-0.96182 10.19527,-0.96182c3.34663,0 10.38763,0.96182 10.38763,0.96182l2.69308,51.74579c0,0 -6.75402,1.68951 -13.08071,1.73127c-6.36385,0.042 -12.88835,-1.73127 -12.88835,-1.73127z" data-paper-data="{&quot;index&quot;:null}" fill="#ffffff" stroke="none" stroke-width="0" stroke-linecap="butt"/><path d="M321.36191,173.48165c-9.69671,0 -17.55744,-7.86074 -17.55744,-17.55745c0,-9.69671 7.86073,-17.55745 17.55744,-17.55745c9.69671,0 17.55745,7.86074 17.55745,17.55745c0,9.69671 -7.86074,17.55745 -17.55745,17.55745z" data-paper-data="{&quot;index&quot;:null}" fill="#eaeaea" stroke="#000000" stroke-width="3" stroke-linecap="butt"/><path d="M307.90122,155.28083c0,-8.14523 6.60301,-14.74825 14.74825,-14.74825c8.14523,0 14.74826,6.60302 14.74826,14.74826c0,8.14523 -6.60302,14.74825 -14.74825,14.74825c-8.14523,0 -14.74825,-6.60302 -14.74825,-14.74825z" data-paper-data="{&quot;index&quot;:null}" fill="#ffffff" stroke="none" stroke-width="0" stroke-linecap="butt"/><path d="M324.8344,152.4172c0,0 0.38734,2.96709 0.44537,4.42679c0.05653,1.42177 -0.10154,4.22062 -0.10154,4.22062" data-paper-data="{&quot;index&quot;:null}" fill="none" stroke="#000000" stroke-width="2.5" stroke-linecap="round"/><path d="M333.84836,152.17276c0,0 0.38735,2.9671 0.44538,4.4268c0.05652,1.42177 -0.10155,4.2206 -0.10155,4.2206" data-paper-data="{&quot;index&quot;:null}" fill="none" stroke="#000000" stroke-width="2.5" stroke-linecap="round"/></g><path d="M307.24616,208.47402l2.93556,-36.54286c0,0 7.1047,1.48869 10.92728,1.48869c3.64793,0 11.50877,-1.48869 11.50877,-1.48869l2.93556,36.54286c0,0 -7.36212,2.13409 -14.25843,2.16359c-6.93681,0.02966 -14.04874,-2.16359 -14.04874,-2.16359z" data-paper-data="{&quot;index&quot;:null}" fill="#c2a969" stroke="#000000" stroke-width="1.5" stroke-linecap="butt"/><path d="M331.50913,188.62222c0,0 -2.7375,0.35266 -4.13363,0.46173c-1.34849,0.10535 -4.1052,-0.333 -4.1052,-0.333l0.38619,-8.62502l7.3377,-0.51493l0.51493,9.01122z" data-paper-data="{&quot;index&quot;:null}" fill="#8c712c" stroke="#000000" stroke-width="1.5" stroke-linecap="butt"/><path d="M330.80599,182.74042l-3.54503,1.70295l-3.14902,-1.57421" data-paper-data="{&quot;index&quot;:null}" fill="none" stroke="#000000" stroke-width="1.5" stroke-linecap="round"/><path d="M336.99445,147.75148c0,0 0.72787,4.66496 0.39726,8.36605c-0.19285,2.15889 -1.59003,4.06641 -2.17198,5.36653c-0.67562,1.50936 -2.7744,3.87597 -4.30607,5.42439c-2.39094,2.41709 -5.58726,2.69411 -5.58726,2.69411" fill="none" stroke="#000000" stroke-width="1.5" stroke-linecap="round"/><path d="M325.27329,169.60922c0,0 -3.54962,-0.33983 -7.11861,-1.21909c-0.1381,-0.03403 -0.27603,-0.06905 -0.41366,-0.10502c-2.65331,-0.69345 -5.19573,-1.73701 -6.70256,-2.67283c-1.68533,-1.04668 -3.76821,-3.17907 -4.8989,-5.22041c-0.88334,-1.59477 -1.02019,-3.2993 -1.02019,-3.2993" fill="none" stroke="#000000" stroke-width="1.5" stroke-linecap="round"/><path d="M300.20856,155.6929c0,0 2.34782,-8.41512 6.19331,-15.3052c1.20457,-2.15825 8.01034,-7.39676 14.66978,-8.1969c7.57657,-0.91034 15.3008,4.55976 16.38238,6.25307c3.30214,5.16975 2.54529,10.86384 1.13409,10.91691c-5.91048,0.22228 -15.55105,-0.54943 -20.13758,0.45226c-2.45688,0.53657 -3.21947,6.29266 -5.73571,7.34381c-5.46585,2.28333 -12.50626,-1.46394 -12.50626,-1.46394z" fill="#b39038" stroke="#000000" stroke-width="2" stroke-linecap="butt"/><path d="M302.99791,154.54682c0,0 2.72481,-10.44509 6.05031,-14.21287c3.00671,-3.40661 12.19429,-5.72889 12.19429,-5.72889c0,0 7.45123,-0.26274 10.21433,2.01682c1.14982,0.9486 4.41747,3.06077 5.36244,5.1989c1.31728,2.98056 1.39495,5.37305 1.39495,5.37305" fill="none" stroke="#715b23" stroke-width="3" stroke-linecap="round"/><path d="M323.62835,171.13925l0.37766,-3.62937l4.33138,0.38204l-0.3156,3.62937z" fill="#c2c2c2" stroke="#afafaf" stroke-width="0.5" stroke-linecap="butt"/><path d="M324.47041,170.50371l0.24328,-2.33796l2.79017,0.24611l-0.2033,2.33795z" fill="#afafaf" stroke="none" stroke-width="NaN" stroke-linecap="butt"/><path d="M309.17857,206.60784l2.56641,-13.56l18.0788,0.10183l4.00983,13.56z" fill="#9f8a56" stroke="#afafaf" stroke-width="1" stroke-linecap="butt"/><path d="M311.58913,193.50802l20.75627,11.71393" fill="none" stroke="#afafaf" stroke-width="1" stroke-linecap="round"/><path d="M309.73956,205.42745l18.70119,-11.71393" fill="none" stroke="#afafaf" stroke-width="1" stroke-linecap="round"/></g></g></svg>