<svg version="1.1" xmlns="http://www.w3.org/2000/svg" xmlns:xlink="http://www.w3.org/1999/xlink" width="211.22241" height="37.41471" viewBox="0,0,211.22241,37.41471"><defs><linearGradient x1="347.32178" y1="167.58135" x2="347.32178" y2="173.80805" gradientUnits="userSpaceOnUse" id="color-1"><stop offset="0" stop-color="#000000"/><stop offset="1" stop-color="#ffffff"/></linearGradient><linearGradient x1="366.37698" y1="170.93449" x2="420.51728" y2="170.93449" gradientUnits="userSpaceOnUse" id="color-2"><stop offset="0" stop-color="#003aff"/><stop offset="1" stop-color="#00ceff"/></linearGradient><linearGradient x1="366.37698" y1="170.93449" x2="420.51728" y2="170.93449" gradientUnits="userSpaceOnUse" id="color-3"><stop offset="0" stop-color="#003aff"/><stop offset="1" stop-color="#00ceff"/></linearGradient><linearGradient x1="373.30723" y1="170.82865" x2="374.30723" y2="170.82865" gradientUnits="userSpaceOnUse" id="color-4"><stop offset="0" stop-color="#003aff"/><stop offset="1" stop-color="#00ceff"/></linearGradient><linearGradient x1="376.52713" y1="169.89455" x2="377.52713" y2="169.89455" gradientUnits="userSpaceOnUse" id="color-5"><stop offset="0" stop-color="#003aff"/><stop offset="1" stop-color="#00ceff"/></linearGradient><linearGradient x1="400.92613" y1="170.7585" x2="401.92613" y2="170.7585" gradientUnits="userSpaceOnUse" id="color-6"><stop offset="0" stop-color="#003aff"/><stop offset="1" stop-color="#00ceff"/></linearGradient><linearGradient x1="401.68128" y1="171.03815" x2="420.30598" y2="171.03815" gradientUnits="userSpaceOnUse" id="color-7"><stop offset="0" stop-color="#003aff"/><stop offset="1" stop-color="#00ceff"/></linearGradient><linearGradient x1="420.54768" y1="171.18935" x2="424.68488" y2="171.18935" gradientUnits="userSpaceOnUse" id="color-8"><stop offset="0" stop-color="#003aff"/><stop offset="1" stop-color="#00ceff"/></linearGradient><linearGradient x1="420.54768" y1="171.18935" x2="424.68488" y2="171.18935" gradientUnits="userSpaceOnUse" id="color-9"><stop offset="0" stop-color="#003aff"/><stop offset="1" stop-color="#00ceff"/></linearGradient><linearGradient x1="273.78873" y1="165.25885" x2="273.78873" y2="174.55345" gradientUnits="userSpaceOnUse" id="color-10"><stop offset="0" stop-color="#9966ff"/><stop offset="1" stop-color="#66e3ff"/></linearGradient><linearGradient x1="273.78873" y1="165.25885" x2="273.78873" y2="174.55345" gradientUnits="userSpaceOnUse" id="color-11"><stop offset="0" stop-color="#9966ff"/><stop offset="1" stop-color="#66e3ff"/></linearGradient><linearGradient x1="302.94798" y1="164.03973" x2="302.94798" y2="176.47214" gradientUnits="userSpaceOnUse" id="color-12"><stop offset="0" stop-color="#9966ff"/><stop offset="1" stop-color="#66e3ff"/></linearGradient><linearGradient x1="327.29998" y1="165.28555" x2="327.29998" y2="174.78835" gradientUnits="userSpaceOnUse" id="color-13"><stop offset="0" stop-color="#9966ff"/><stop offset="1" stop-color="#66e3ff"/></linearGradient><linearGradient x1="327.29998" y1="165.28555" x2="327.29998" y2="174.78835" gradientUnits="userSpaceOnUse" id="color-14"><stop offset="0" stop-color="#9966ff"/><stop offset="1" stop-color="#66e3ff"/></linearGradient><linearGradient x1="357.43528" y1="168.00505" x2="357.43528" y2="172.97885" gradientUnits="userSpaceOnUse" id="color-15"><stop offset="0" stop-color="#9966ff"/><stop offset="1" stop-color="#66e3ff"/></linearGradient><linearGradient x1="357.43528" y1="168.00505" x2="357.43528" y2="172.97885" gradientUnits="userSpaceOnUse" id="color-16"><stop offset="0" stop-color="#9966ff"/><stop offset="1" stop-color="#66e3ff"/></linearGradient><linearGradient x1="263.48688" y1="167.10933" x2="263.48688" y2="169.91905" gradientUnits="userSpaceOnUse" id="color-17"><stop offset="0" stop-color="#9966ff"/><stop offset="1" stop-color="#66e3ff"/></linearGradient><linearGradient x1="281.02033" y1="165.80755" x2="281.02033" y2="171.42715" gradientUnits="userSpaceOnUse" id="color-18"><stop offset="0" stop-color="#9966ff"/><stop offset="1" stop-color="#66e3ff"/></linearGradient><linearGradient x1="323.17043" y1="165.74105" x2="323.17043" y2="171.47295" gradientUnits="userSpaceOnUse" id="color-19"><stop offset="0" stop-color="#000000"/><stop offset="1" stop-color="#ffffff"/></linearGradient><linearGradient x1="231.70843" y1="161.97726" x2="231.70843" y2="176.47575" gradientUnits="userSpaceOnUse" id="color-20"><stop offset="0" stop-color="#9966ff"/><stop offset="1" stop-color="#66e3ff"/></linearGradient><linearGradient x1="231.70843" y1="161.97726" x2="231.70843" y2="176.47575" gradientUnits="userSpaceOnUse" id="color-21"><stop offset="0" stop-color="#9966ff"/><stop offset="1" stop-color="#66e3ff"/></linearGradient><linearGradient x1="216.47489" y1="161.72394" x2="216.47489" y2="176.69945" gradientUnits="userSpaceOnUse" id="color-22"><stop offset="0" stop-color="#9966ff"/><stop offset="1" stop-color="#66e3ff"/></linearGradient><linearGradient x1="216.47489" y1="161.72394" x2="216.47489" y2="176.69945" gradientUnits="userSpaceOnUse" id="color-23"><stop offset="0" stop-color="#9966ff"/><stop offset="1" stop-color="#66e3ff"/></linearGradient><linearGradient x1="334.89453" y1="173.52125" x2="334.89453" y2="197.40737" gradientUnits="userSpaceOnUse" id="color-24"><stop offset="0" stop-color="#9966ff"/><stop offset="1" stop-color="#66e3ff"/></linearGradient><linearGradient x1="334.89453" y1="173.52125" x2="334.89453" y2="197.40737" gradientUnits="userSpaceOnUse" id="color-25"><stop offset="0" stop-color="#9966ff"/><stop offset="1" stop-color="#66e3ff"/></linearGradient><linearGradient x1="328.25427" y1="178.11295" x2="328.25427" y2="179.25115" gradientUnits="userSpaceOnUse" id="color-26"><stop offset="0" stop-color="#000000"/><stop offset="1" stop-color="#ffffff"/></linearGradient><linearGradient x1="341.29418" y1="174.10465" x2="341.29418" y2="183.26455" gradientUnits="userSpaceOnUse" id="color-27"><stop offset="0" stop-color="#000000"/><stop offset="1" stop-color="#ffffff"/></linearGradient><linearGradient x1="339.49438" y1="176.86025" x2="339.49438" y2="180.81335" gradientUnits="userSpaceOnUse" id="color-28"><stop offset="0" stop-color="#000000"/><stop offset="1" stop-color="#ffffff"/></linearGradient><linearGradient x1="357.3193" y1="164.49785" x2="357.3193" y2="167.52155" gradientUnits="userSpaceOnUse" id="color-29"><stop offset="0" stop-color="#9966ff"/><stop offset="1" stop-color="#66e3ff"/></linearGradient><linearGradient x1="357.3193" y1="164.49785" x2="357.3193" y2="167.52155" gradientUnits="userSpaceOnUse" id="color-30"><stop offset="0" stop-color="#9966ff"/><stop offset="1" stop-color="#66e3ff"/></linearGradient><linearGradient x1="316.36793" y1="161.56705" x2="316.36793" y2="165.22585" gradientUnits="userSpaceOnUse" id="color-31"><stop offset="0" stop-color="#000000"/><stop offset="1" stop-color="#ffffff"/></linearGradient><linearGradient x1="316.36793" y1="161.56705" x2="316.36793" y2="165.22585" gradientUnits="userSpaceOnUse" id="color-32"><stop offset="0" stop-color="#000000"/><stop offset="1" stop-color="#ffffff"/></linearGradient><linearGradient x1="329.50736" y1="191.02766" x2="337.47598" y2="191.02766" gradientUnits="userSpaceOnUse" id="color-33"><stop offset="0" stop-color="#000000"/><stop offset="1" stop-color="#ffffff"/></linearGradient><linearGradient x1="329.50736" y1="191.02766" x2="337.47598" y2="191.02766" gradientUnits="userSpaceOnUse" id="color-34"><stop offset="0" stop-color="#000000"/><stop offset="1" stop-color="#ffffff"/></linearGradient><linearGradient x1="333.76296" y1="190.55009" x2="333.76296" y2="193.24757" gradientUnits="userSpaceOnUse" id="color-35"><stop offset="0" stop-color="#000000"/><stop offset="1" stop-color="#ffffff"/></linearGradient><linearGradient x1="333.86655" y1="175.26461" x2="333.86655" y2="176.73597" gradientUnits="userSpaceOnUse" id="color-36"><stop offset="0" stop-color="#000000"/><stop offset="1" stop-color="#ffffff"/></linearGradient><linearGradient x1="305.61735" y1="182.87471" x2="314.34688" y2="182.87471" gradientUnits="userSpaceOnUse" id="color-37"><stop offset="0" stop-color="#000000"/><stop offset="1" stop-color="#ffffff"/></linearGradient><linearGradient x1="305.61735" y1="182.87471" x2="314.34688" y2="182.87471" gradientUnits="userSpaceOnUse" id="color-38"><stop offset="0" stop-color="#000000"/><stop offset="1" stop-color="#ffffff"/></linearGradient><linearGradient x1="307.69757" y1="177.1707" x2="311.78448" y2="177.1707" gradientUnits="userSpaceOnUse" id="color-39"><stop offset="0" stop-color="#000000"/><stop offset="1" stop-color="#ffffff"/></linearGradient><linearGradient x1="308.96491" y1="185.33824" x2="308.96491" y2="186.89134" gradientUnits="userSpaceOnUse" id="color-40"><stop offset="0" stop-color="#000000"/><stop offset="1" stop-color="#ffffff"/></linearGradient><linearGradient x1="309.00503" y1="180.92435" x2="309.00503" y2="182.47745" gradientUnits="userSpaceOnUse" id="color-41"><stop offset="0" stop-color="#000000"/><stop offset="1" stop-color="#ffffff"/></linearGradient><linearGradient x1="240.92673" y1="165.87185" x2="240.92673" y2="170.47985" gradientUnits="userSpaceOnUse" id="color-42"><stop offset="0" stop-color="#9966ff"/><stop offset="1" stop-color="#66e3ff"/></linearGradient><linearGradient x1="233.73528" y1="164.79495" x2="233.73528" y2="171.08885" gradientUnits="userSpaceOnUse" id="color-43"><stop offset="0" stop-color="#9966ff"/><stop offset="1" stop-color="#66e3ff"/></linearGradient><linearGradient x1="355.93472" y1="165.19588" x2="355.93472" y2="166.52417" gradientUnits="userSpaceOnUse" id="color-44"><stop offset="0" stop-color="#000000"/><stop offset="1" stop-color="#ffffff"/></linearGradient><linearGradient x1="360.15083" y1="165.23417" x2="360.15083" y2="166.56246" gradientUnits="userSpaceOnUse" id="color-45"><stop offset="0" stop-color="#000000"/><stop offset="1" stop-color="#ffffff"/></linearGradient><linearGradient x1="303.08219" y1="165.17361" x2="303.08219" y2="175.35695" gradientUnits="userSpaceOnUse" id="color-46"><stop offset="0" stop-color="#9966ff"/><stop offset="1" stop-color="#66e3ff"/></linearGradient><linearGradient x1="303.91667" y1="172.69548" x2="314.28294" y2="172.69548" gradientTransform="translate(-3940.31731,-2241.47948) scale(12.96512,12.90989)" gradientUnits="userSpaceOnUse" id="color-47"><stop offset="0" stop-color="#003aff"/><stop offset="1" stop-color="#00ceff"/></linearGradient></defs><g transform="translate(-214.21884,-160.96747)"><g data-paper-data="{&quot;isPaintingLayer&quot;:true}" fill-rule="nonzero" stroke-linejoin="miter" stroke-miterlimit="10" stroke-dasharray="" stroke-dashoffset="0" style="mix-blend-mode: normal"><g data-paper-data="{&quot;index&quot;:null}"><path d="M327.90398,173.45555l0.0534,-5.8742l38.7822,0.3524l-0.0533,5.8743z" fill="#759062" stroke="url(#color-1)" stroke-width="1.5" stroke-linecap="butt"/><path d="M334.42998,174.35415l0.0703,-7.7325" fill="none" stroke="#000000" stroke-width="1.5" stroke-linecap="round"/><path d="M343.49148,166.70335l-0.0702,7.7325" fill="none" stroke="#000000" stroke-width="1.5" stroke-linecap="round"/><path d="M323.46558,173.71495l0.0588,-6.4737l4.1376,-0.1422l-0.0621,6.8334z" fill="#a2a79e" stroke="#000000" stroke-width="1.5" stroke-linecap="butt"/><path d="M295.79048,171.48525l0.0245,-2.6974l27.5133,0.2501l-0.0245,2.6973z" fill="#a2a79e" stroke="#000000" stroke-width="1.5" stroke-linecap="butt"/><path d="M293.30048,171.82235l0.0314,-3.4617l2.3961,0.1129l-0.0298,3.2794z" data-paper-data="{&quot;index&quot;:null}" fill="#87a771" stroke="#000000" stroke-width="1.5" stroke-linecap="butt"/><g><path d="M367.76478,176.11755c0,0 -1.4017,-1.2511 -1.3877,-2.7873c0.0172,-1.8871 0.0384,-4.2237 0.0479,-5.2663c0.0093,-1.0308 1.4346,-2.3762 1.4346,-2.3762c0,0 1.2239,0.0319 2.0115,0.2182c1.124,0.2658 4.0899,1.2246 4.0899,1.2246c0,0 18.863,-2.6101 27.1361,-2.1743c7.0487,0.3714 19.4202,4.6269 19.4202,4.6269l-0.1006,3.296c0,0 -12.1164,3.7785 -19.691,4.0597c-7.9181,0.2939 -26.8326,-2.3328 -26.8326,-2.3328c0,0 -2.9685,1.1167 -4.097,1.395c-0.7955,0.1962 -2.0313,0.1165 -2.0313,0.1165z" fill="url(#color-2)" stroke="url(#color-3)" stroke-width="1.5" stroke-linecap="butt"/><path d="M373.77688,174.16825l0.0607,-6.6792" fill="none" stroke="url(#color-4)" stroke-width="1" stroke-linecap="round"/><path d="M377.05458,166.87605l-0.0549,6.037" fill="none" stroke="url(#color-5)" stroke-width="1" stroke-linecap="round"/><path d="M401.37418,176.47435l0.1039,-11.4317" fill="none" stroke="url(#color-6)" stroke-width="1" stroke-linecap="round"/><path d="M401.68128,170.95355l18.6247,0.1692" fill="none" stroke="url(#color-7)" stroke-width="0.5" stroke-linecap="round"/><path d="M420.54768,172.79495l0.0292,-3.2112l4.108,0.2942l-0.0245,2.6974z" fill="url(#color-8)" stroke="url(#color-9)" stroke-width="1.5" stroke-linecap="butt"/></g><path d="M284.08838,171.21875c0.0076,-0.8359 0.0144,-1.5904 0.0194,-2.1354c0.007,-0.7792 0.7214,-2.0064 1.9282,-1.9954c4.2304,0.0384 36.8713,0.4474 36.8713,0.4474l-0.0534,5.8743c0,0 -32.0097,-0.2908 -36.7599,-0.334c-1.4836,-0.0135 -2.0131,-1.0374 -2.0056,-1.8569z" fill="#4892b6" stroke="#000000" stroke-width="1.5" stroke-linecap="butt"/></g><path d="M245.40158,172.59955l0.0564,-6.2082l18.7588,0.1705l14.9385,-1.303l23.0206,0.2092l-0.0825,9.0854l-23.0206,-0.2092l-14.8816,-1.6783z" data-paper-data="{&quot;index&quot;:null}" fill="url(#color-10)" stroke="url(#color-11)" stroke-width="2" stroke-linecap="butt"/><path d="M301.54293,176.44764l0.1128,-12.4079l2.6973,0.0245l-0.1127,12.4079z" data-paper-data="{&quot;index&quot;:null}" fill="#c2b589" stroke="url(#color-12)" stroke-width="2" stroke-linecap="butt"/><path d="M305.14688,174.63645l0.085,-9.3509l16.8361,0.153l4.1288,1.5948l23.2563,0.385l-0.0867,6.0086l-23.338,-0.1073l-4.1578,1.4687z" data-paper-data="{&quot;index&quot;:null}" fill="url(#color-13)" stroke="url(#color-14)" stroke-width="2" stroke-linecap="butt"/><path d="M349.65838,172.83785l0.0439,-4.8328l15.5099,0.141l-0.0439,4.8328z" data-paper-data="{&quot;index&quot;:null}" fill="url(#color-15)" stroke="url(#color-16)" stroke-width="1.5" stroke-linecap="butt"/><path d="M263.49968,167.10935l-0.0256,2.8097" data-paper-data="{&quot;index&quot;:null}" fill="none" stroke="url(#color-17)" stroke-width="1.5" stroke-linecap="round"/><path d="M281.04588,165.80755l-0.0511,5.6196" data-paper-data="{&quot;index&quot;:null}" fill="none" stroke="url(#color-18)" stroke-width="1.5" stroke-linecap="round"/><path d="M323.14438,171.47295l0.0521,-5.7319" data-paper-data="{&quot;index&quot;:null}" fill="none" stroke="url(#color-19)" stroke-width="1.5" stroke-linecap="round"/><path d="M218.11738,176.47575l0.1317,-14.4984c0,0 0.5627,-0.012 1.2307,0.2453c0.7861,0.3028 1.7622,0.8924 2.7843,1.0503c4.5247,0.6992 23.0354,2.8842 23.0354,2.8842l-0.0612,6.7434c0,0 -18.5834,1.6639 -23.1118,2.2609c-0.9529,0.1256 -1.8865,0.7695 -2.6847,1.041c-0.7801,0.2653 -1.3244,0.2733 -1.3244,0.2733z" data-paper-data="{&quot;index&quot;:null}" fill="url(#color-20)" stroke="url(#color-21)" stroke-width="1.5" stroke-linecap="butt"/><path d="M214.96838,176.67185c0,0 -0.1784,-5.1082 -0.1553,-7.6446c0.0222,-2.4427 0.2911,-7.3033 0.2911,-7.3033l3.0346,0.0276l-0.1358,14.9479z" data-paper-data="{&quot;index&quot;:null}" fill="url(#color-22)" stroke="url(#color-23)" stroke-width="1.5" stroke-linecap="butt"/><path d="M329.50958,195.32505c0.0108,-1.1903 0.0537,-5.9158 0.1031,-11.3514c0.0041,-0.444 -1.4447,-1.8116 -1.4447,-1.8116c0,0 1.47,-0.9688 1.4764,-1.6725c0.0335,-3.6864 0.0633,-6.9683 0.0633,-6.9683l11.9134,0.1083c0,0 -0.1463,2.0467 -0.6639,2.6227c-0.6044,0.6725 -3.4128,0.7122 -3.4128,0.7122c0,0 -0.1412,15.5404 -0.1685,18.5445c-0.0088,0.9643 -0.7481,1.904 -1.3661,1.8984c-0.9565,-0.0087 -3.6846,-0.0335 -5.2823,-0.048c-0.6718,-0.0061 -1.2273,-1.0005 -1.2179,-2.0343z" data-paper-data="{&quot;index&quot;:null}" fill="url(#color-24)" stroke="url(#color-25)" stroke-width="1.5" stroke-linecap="butt"/><path d="M327.07777,178.44295l0.7898,-0.33l1.5632,1.1382" data-paper-data="{&quot;index&quot;:null}" fill="none" stroke="url(#color-26)" stroke-width="1" stroke-linecap="round"/><path d="M344.42678,174.10465c0,0 -0.0345,3.8004 -0.047,5.17c-0.0082,0.9031 -0.0689,2.1744 -2.1455,2.8451c-1.0666,0.3445 -4.0727,1.1448 -4.0727,1.1448" data-paper-data="{&quot;index&quot;:null}" fill="none" stroke="url(#color-27)" stroke-width="1.5" stroke-linecap="round"/><path d="M340.54418,180.81335c0,0 -1.0835,-0.7043 -1.4575,-1.4084c-0.3162,-0.5952 -0.6421,-2.5447 -0.6421,-2.5447" data-paper-data="{&quot;index&quot;:null}" fill="none" stroke="url(#color-28)" stroke-width="1" stroke-linecap="round"/><path d="M352.46778,167.43374c0,0 -0.0115,-2.4729 3.621,-2.6647c1.0238,-0.054 3.0132,-0.4031 5.1667,-0.2171c1.1154,0.0964 0.8983,0.7218 0.8983,0.7218l-0.0204,2.2478z" data-paper-data="{&quot;index&quot;:null}" fill="url(#color-29)" stroke="url(#color-30)" stroke-width="1" stroke-linecap="butt"/><path d="M312.92368,165.16355l0.0326,-3.5965l1.7983,0.0164l0.658,1.8044l2.023,0.0183l0.5783,-1.7931l1.7983,0.0163l-0.0327,3.5965z" data-paper-data="{&quot;index&quot;:null}" fill="url(#color-31)" stroke="url(#color-32)" stroke-width="1" stroke-linecap="round"/><path d="M329.50748,195.54985c0.0108,-1.1903 0.1011,-11.1267 0.1011,-11.1267l7.8674,0.0715c0,0 -0.088,9.6777 -0.1022,11.2391c-0.0087,0.9643 -0.748,1.904 -1.366,1.8984c-0.9565,-0.0087 -3.6846,-0.0335 -5.2824,-0.048c-0.6718,-0.0061 -1.2273,-1.0005 -1.2179,-2.0343z" data-paper-data="{&quot;index&quot;:null}" fill="url(#color-33)" stroke="url(#color-34)" stroke-width="1.5" stroke-linecap="butt"/><path d="M332.41427,191.88658c0.00677,-0.74486 0.61609,-1.3432 1.36094,-1.33643c0.74485,0.00677 1.3432,0.61608 1.33643,1.36094c-0.00677,0.74486 -0.61609,1.3432 -1.36094,1.33643c-0.74485,-0.00677 -1.3432,-0.61608 -1.33643,-1.36094z" data-paper-data="{&quot;index&quot;:null}" fill="url(#color-35)" stroke="#000000" stroke-width="0" stroke-linecap="butt"/><path d="M333.1309,175.99361c0.0037,-0.40629 0.33606,-0.73266 0.74234,-0.72896c0.40629,0.0037 0.73266,0.33604 0.72896,0.74233c-0.0037,0.40629 -0.33604,0.73266 -0.74233,0.72896c-0.40629,-0.0037 -0.73266,-0.33604 -0.72897,-0.74233z" data-paper-data="{&quot;index&quot;:null}" fill="url(#color-36)" stroke="#000000" stroke-width="0" stroke-linecap="butt"/><path d="M305.61748,188.79315c0.0108,-1.1904 0.1264,-13.9058 0.1264,-13.9058l8.603,0.0782c0,0 -1.5555,1.0136 -1.9604,1.4331c-0.315,0.3264 -0.2677,0.8754 -0.2677,0.8754c0,0 -0.096,10.5564 -0.1063,11.6896c-0.0087,0.9643 -0.748,1.904 -1.366,1.8984c-0.9565,-0.0087 -2.2133,-0.0201 -3.8111,-0.0346c-0.6718,-0.0062 -1.2273,-1.0005 -1.2179,-2.0343z" data-paper-data="{&quot;index&quot;:null}" fill="url(#color-37)" stroke="url(#color-38)" stroke-width="1.5" stroke-linecap="butt"/><path d="M311.78447,177.18925l-4.0869,-0.0371" data-paper-data="{&quot;index&quot;:null}" fill="none" stroke="url(#color-39)" stroke-width="1" stroke-linecap="round"/><path d="M308.1884,186.10774c0.00389,-0.42886 0.35471,-0.77336 0.78357,-0.76946c0.42886,0.00389 0.77335,0.35472 0.76945,0.78357c-0.00389,0.42886 -0.35471,0.77335 -0.78357,0.76946c-0.42886,-0.00389 -0.77335,-0.35471 -0.76946,-0.78357z" data-paper-data="{&quot;index&quot;:null}" fill="url(#color-40)" stroke="#000000" stroke-width="0" stroke-linecap="butt"/><path d="M308.22851,181.69385c0.00389,-0.42886 0.35471,-0.77335 0.78357,-0.76946c0.42886,0.00389 0.77335,0.35471 0.76946,0.78357c-0.00389,0.42886 -0.35471,0.77336 -0.78357,0.76946c-0.42886,-0.00389 -0.77335,-0.35472 -0.76945,-0.78357z" data-paper-data="{&quot;index&quot;:null}" fill="url(#color-41)" stroke="#000000" stroke-width="0" stroke-linecap="butt"/><path d="M240.90578,170.47985l0.0419,-4.608" data-paper-data="{&quot;index&quot;:null}" fill="none" stroke="url(#color-42)" stroke-width="1.5" stroke-linecap="round"/><path d="M233.70668,171.08885l0.0572,-6.2939" data-paper-data="{&quot;index&quot;:null}" fill="none" stroke="url(#color-43)" stroke-width="1.5" stroke-linecap="round"/><path d="M355.27058,165.85401c0.00334,-0.36679 0.30338,-0.66143 0.67016,-0.6581c0.36679,0.00334 0.66143,0.30338 0.6581,0.67016c-0.00334,0.36679 -0.30338,0.66142 -0.67016,0.65808c-0.36679,-0.00334 -0.66142,-0.30338 -0.65808,-0.67016z" data-paper-data="{&quot;index&quot;:null}" fill="url(#color-44)" stroke="#000000" stroke-width="0" stroke-linecap="butt"/><path d="M359.48671,165.89229c0.00334,-0.36679 0.30338,-0.66143 0.67016,-0.6581c0.36679,0.00334 0.66142,0.30338 0.65808,0.67016c-0.00334,0.36679 -0.30338,0.66142 -0.67016,0.65808c-0.36679,-0.00334 -0.66142,-0.30338 -0.65808,-0.67016z" data-paper-data="{&quot;index&quot;:null}" fill="url(#color-45)" stroke="#000000" stroke-width="0" stroke-linecap="butt"/><path d="M302.69743,175.35695v-10.18334h0.76952v10.18334z" fill="#c2b589" stroke="url(#color-46)" stroke-width="2" stroke-linecap="butt"/><text transform="translate(303.91667,173.625) scale(0.07713,0.07746)" font-size="40" xml:space="preserve" fill="url(#color-47)" fill-rule="nonzero" stroke="none" stroke-width="1" stroke-linecap="butt" stroke-linejoin="miter" stroke-miterlimit="10" stroke-dasharray="" stroke-dashoffset="0" font-family="Sans Serif" font-weight="normal" text-anchor="start" style="mix-blend-mode: normal"><tspan x="0" dy="0">by.摘睿</tspan></text></g></g></svg>