<svg version="1.1" xmlns="http://www.w3.org/2000/svg" xmlns:xlink="http://www.w3.org/1999/xlink" width="75.71928" height="113.46071" viewBox="0,0,75.71928,113.46071"><g transform="translate(-282.14036,-123.26964)"><g data-paper-data="{&quot;isPaintingLayer&quot;:true}" fill-rule="nonzero" stroke-linejoin="miter" stroke-miterlimit="10" stroke-dasharray="" stroke-dashoffset="0" style="mix-blend-mode: normal"><path d="M298.30337,211.19375c6.61227,-1.21168 14.70807,-1.97923 14.70807,-1.97923l29.81552,16.5674c0,0 4.89216,0.05346 8.9507,1.04021c6.62846,1.61159 11.73436,7.93828 -6.49102,9.61202c-9.1888,0.84386 -15.56752,-0.19273 -18.87683,-2.12805c-3.3213,-1.94232 -3.50918,-4.37206 -3.50918,-4.37206l-36.9224,-15.69115c0,0 5.67403,-1.83034 12.32514,-3.04914z" data-paper-data="{&quot;index&quot;:null}" fill-opacity="0.25098" fill="#000000" stroke="none" stroke-width="0" stroke-linecap="butt"/><g data-paper-data="{&quot;index&quot;:null}"><path d="M285.39611,212.20573l3.27739,-62.9727c0,0 8.13956,-1.17049 12.40726,-1.17049c4.07272,0 12.64136,1.17049 12.64136,1.17049l3.27739,62.9727c0,0 -8.2194,2.05607 -15.91875,2.10689c-7.74457,0.05112 -15.68465,-2.10689 -15.68465,-2.10689z" data-paper-data="{&quot;index&quot;:null}" fill="#eaeaea" stroke="#000000" stroke-width="3" stroke-linecap="butt"/><path d="M289.23889,208.55924l2.69309,-51.74579c0,0 6.68842,-0.96182 10.19527,-0.96182c3.34663,0 10.38763,0.96182 10.38763,0.96182l2.69308,51.74579c0,0 -6.75402,1.68951 -13.08071,1.73127c-6.36385,0.042 -12.88835,-1.73127 -12.88835,-1.73127z" data-paper-data="{&quot;index&quot;:null}" fill="#ffffff" stroke="none" stroke-width="0" stroke-linecap="butt"/><path d="M301.1978,159.88455c-9.69671,0 -17.55744,-7.86074 -17.55744,-17.55745c0,-9.69671 7.86073,-17.55745 17.55744,-17.55745c9.69671,0 17.55745,7.86074 17.55745,17.55745c0,9.69671 -7.86074,17.55745 -17.55745,17.55745z" data-paper-data="{&quot;index&quot;:null}" fill="#eaeaea" stroke="#000000" stroke-width="3" stroke-linecap="butt"/><path d="M287.73711,141.68374c0,-8.14523 6.60301,-14.74825 14.74825,-14.74825c8.14523,0 14.74826,6.60302 14.74826,14.74826c0,8.14523 -6.60302,14.74825 -14.74825,14.74825c-8.14523,0 -14.74825,-6.60302 -14.74825,-14.74825z" data-paper-data="{&quot;index&quot;:null}" fill="#ffffff" stroke="none" stroke-width="0" stroke-linecap="butt"/><path d="M304.67029,138.82011c0,0 0.38734,2.96709 0.44537,4.42679c0.05653,1.42177 -0.10154,4.22062 -0.10154,4.22062" data-paper-data="{&quot;index&quot;:null}" fill="none" stroke="#000000" stroke-width="2.5" stroke-linecap="round"/><path d="M313.68425,138.57566c0,0 0.38735,2.9671 0.44538,4.4268c0.05652,1.42177 -0.10155,4.2206 -0.10155,4.2206" data-paper-data="{&quot;index&quot;:null}" fill="none" stroke="#000000" stroke-width="2.5" stroke-linecap="round"/></g><path d="M287.16599,207.80575l2.93556,-49.47173c0,0 7.1047,2.01538 10.92728,2.01538c3.64793,0 11.50877,-2.01538 11.50877,-2.01538l2.93556,49.47173c0,0 -7.36212,1.61526 -14.25843,1.65519c-6.93681,0.04016 -14.04874,-1.65519 -14.04874,-1.65519z" data-paper-data="{&quot;index&quot;:null}" fill="#c2c2c2" stroke="#000000" stroke-width="1.5" stroke-linecap="butt"/></g></g></svg>